<svg width="55" height="55" viewBox="0 0 55 55" fill="none" xmlns="http://www.w3.org/2000/svg">
<rect x="0.5" y="0.5" width="54" height="54" stroke="#FFCA42"/>
<path d="M35.1367 23.5938C35.8398 23.0664 36.4727 22.4336 36.9648 21.6953C36.332 21.9766 35.5938 22.1875 34.8555 22.2578C35.6289 21.8008 36.1914 21.0977 36.4727 20.2188C35.7695 20.6406 34.9609 20.957 34.1523 21.1328C33.4492 20.3945 32.5 19.9727 31.4453 19.9727C29.4062 19.9727 27.7539 21.625 27.7539 23.6641C27.7539 23.9453 27.7891 24.2266 27.8594 24.5078C24.8008 24.332 22.0586 22.8555 20.2305 20.6406C19.9141 21.168 19.7383 21.8008 19.7383 22.5039C19.7383 23.7695 20.3711 24.8945 21.3906 25.5625C20.793 25.5273 20.1953 25.3867 19.7031 25.1055V25.1406C19.7031 26.9336 20.9688 28.4102 22.6562 28.7617C22.375 28.832 22.0234 28.9023 21.707 28.9023C21.4609 28.9023 21.25 28.8672 21.0039 28.832C21.4609 30.3086 22.832 31.3633 24.4492 31.3984C23.1836 32.3828 21.6016 32.9805 19.8789 32.9805C19.5625 32.9805 19.2812 32.9453 19 32.9102C20.6172 33.9648 22.5508 34.5625 24.6602 34.5625C31.4453 34.5625 35.1367 28.9727 35.1367 24.0859C35.1367 23.9102 35.1367 23.7695 35.1367 23.5938Z" fill="white"/>
</svg>
