<svg width="55" height="55" viewBox="0 0 55 55" fill="none" xmlns="http://www.w3.org/2000/svg">
<rect x="0.5" y="0.5" width="54" height="54" stroke="#FFCA42"/>
<path d="M22.6406 33V22.4883H19.3711V33H22.6406ZM20.9883 21.082C22.043 21.082 22.8867 20.2031 22.8867 19.1484C22.8867 18.1289 22.043 17.2852 20.9883 17.2852C19.9688 17.2852 19.125 18.1289 19.125 19.1484C19.125 20.2031 19.9688 21.082 20.9883 21.082ZM34.8398 33H34.875V27.2344C34.875 24.4219 34.2422 22.2422 30.9375 22.2422C29.3555 22.2422 28.3008 23.1211 27.8438 23.9297H27.8086V22.4883H24.6797V33H27.9492V27.7969C27.9492 26.4258 28.1953 25.125 29.8828 25.125C31.5703 25.125 31.6055 26.6719 31.6055 27.9023V33H34.8398Z" fill="white"/>
</svg>
