<svg width="96" height="89" viewBox="0 0 96 89" fill="none" xmlns="http://www.w3.org/2000/svg">
<path d="M18.0127 11.1732H20.1541L23.1101 19.7681H21.0778L20.4942 17.8451H17.6642L17.0806 19.7681H15.0484L18.0127 11.1732ZM20.0785 16.4763L19.0792 13.1718L18.0799 16.4763H20.0785Z" fill="#1B3764"/>
<path d="M33.1577 19.768V14.6455L31.3061 18.374H30.2144L28.3627 14.6455V19.768H26.3767V11.1731H28.5307L30.756 15.6658L32.994 11.1731H35.1354V19.768H33.1577Z" fill="#1B3764"/>
<path d="M41.379 11.1731H43.5203L46.4763 19.768H44.4441L43.8604 17.845H41.0305L40.4468 19.768H38.4146L41.379 11.1731ZM43.4448 16.4762L42.4454 13.1717L41.4461 16.4762H43.4448Z" fill="#1B3764"/>
<path d="M49.2601 18.2816L53.6436 12.9197H49.4322V11.1772H56.0285V12.6678L51.8507 18.0297H56.0747V19.7721H49.2601V18.2816Z" fill="#1B3764"/>
<path d="M65.7739 18.0255V19.768H59.7318V11.1731H65.6647V12.9156H61.7178V14.5867H65.1063V16.199H61.7178V18.0255H65.7739Z" fill="#1B3764"/>
<path d="M71.3918 14.8554V19.7722H69.4058V11.1731H70.9804L74.965 16.2326V11.1731H76.951V19.768H75.3303L71.3918 14.8554Z" fill="#1B3764"/>
<path d="M24.3151 29.9164C24.3151 29.3916 24.4117 28.8793 24.6048 28.3713C24.798 27.8674 25.0793 27.4098 25.453 26.9983C25.8225 26.5868 26.276 26.2593 26.8092 26.0116C27.3424 25.7639 27.9471 25.6421 28.6231 25.6421C29.4292 25.6421 30.1304 25.8142 30.7225 26.1627C31.3145 26.5112 31.7596 26.9605 32.0493 27.5189L30.5251 28.5854C30.395 28.2789 30.2228 28.0396 30.0087 27.8716C29.7945 27.7037 29.5594 27.5819 29.3075 27.5147C29.0514 27.4476 28.8078 27.4098 28.5769 27.4098C28.199 27.4098 27.8673 27.4854 27.586 27.6323C27.3047 27.7835 27.0695 27.9808 26.8848 28.2327C26.7 28.4847 26.5615 28.7618 26.4733 29.0683C26.3851 29.3748 26.3389 29.6813 26.3389 29.9878C26.3389 30.3279 26.3893 30.6554 26.4943 30.9703C26.5993 31.2853 26.7504 31.5624 26.9478 31.8059C27.1451 32.0494 27.3844 32.2384 27.67 32.3811C27.9513 32.5239 28.262 32.5911 28.6021 32.5911C28.8456 32.5911 29.0891 32.5491 29.3411 32.4693C29.593 32.3895 29.8239 32.2594 30.0381 32.0872C30.2522 31.9151 30.416 31.6841 30.5293 31.4028L32.15 32.3601C31.9821 32.78 31.7008 33.1369 31.3145 33.4392C30.9282 33.7373 30.4873 33.9641 30.0003 34.1236C29.5132 34.279 29.0304 34.3588 28.5517 34.3588C27.9303 34.3588 27.3592 34.2328 26.8386 33.9767C26.3179 33.7205 25.8687 33.3846 25.495 32.9606C25.1213 32.5365 24.8274 32.062 24.6216 31.533C24.4201 31.0039 24.3151 30.4623 24.3151 29.9164Z" fill="#1B3764"/>
<path d="M39.2081 34.3582C38.5615 34.3582 37.9779 34.2365 37.4572 33.9887C36.9366 33.741 36.4873 33.4135 36.1136 32.9978C35.7399 32.5821 35.4502 32.1161 35.2487 31.5954C35.0471 31.0748 34.9464 30.5373 34.9464 29.9789C34.9464 29.4079 35.0513 28.862 35.2655 28.3456C35.4796 27.8291 35.7777 27.3673 36.1598 26.96C36.5419 26.5527 36.9954 26.2336 37.5202 25.9984C38.045 25.7633 38.6161 25.6458 39.2375 25.6458C39.8757 25.6458 40.4551 25.7675 40.9758 26.0152C41.4964 26.263 41.9457 26.5947 42.3194 27.0146C42.6931 27.4344 42.9828 27.9047 43.1844 28.4253C43.3859 28.946 43.4867 29.475 43.4867 30.0167C43.4867 30.5919 43.3817 31.1336 43.1718 31.65C42.9618 32.1665 42.6637 32.6283 42.2774 33.0356C41.8911 33.4429 41.4377 33.7662 40.917 34.0055C40.4006 34.2407 39.8295 34.3582 39.2081 34.3582ZM36.966 29.9999C36.966 30.3316 37.0163 30.6507 37.1129 30.9614C37.2095 31.2721 37.3523 31.5492 37.5412 31.7886C37.7301 32.0321 37.9653 32.2252 38.2508 32.368C38.5321 32.515 38.8554 32.5863 39.2207 32.5863C39.5986 32.5863 39.9303 32.5108 40.2116 32.3638C40.4929 32.2168 40.7281 32.0153 40.9128 31.7634C41.0976 31.5114 41.2361 31.2343 41.3285 30.9236C41.4209 30.6129 41.4671 30.298 41.4671 29.9747C41.4671 29.643 41.4209 29.3239 41.3201 29.0174C41.2235 28.7109 41.0766 28.4337 40.8834 28.186C40.6903 27.9383 40.4509 27.7493 40.1696 27.6108C39.8883 27.4722 39.5692 27.405 39.2123 27.405C38.8344 27.405 38.5027 27.4764 38.2256 27.6234C37.9485 27.7703 37.7133 27.9635 37.5244 28.2112C37.3355 28.4589 37.1927 28.7361 37.1003 29.0468C37.0121 29.3617 36.966 29.6766 36.966 29.9999Z" fill="#1B3764"/>
<path d="M47.064 34.2953V25.7004H50.9395C51.3426 25.7004 51.7163 25.7844 52.0606 25.9482C52.4049 26.1119 52.6988 26.3345 52.9507 26.6158C53.2026 26.8929 53.3958 27.2078 53.5385 27.5563C53.6813 27.9048 53.7485 28.2533 53.7485 28.6102C53.7485 28.9671 53.6939 29.303 53.5805 29.6221C53.4672 29.9412 53.3076 30.2267 53.0977 30.4828C52.8877 30.739 52.6358 30.9447 52.3461 31.1043L54.2355 34.2995H52.0438L50.3979 31.5283H49.0543V34.2995H47.064V34.2953ZM49.0501 29.7943H50.8681C51.0277 29.7943 51.1746 29.7439 51.2964 29.6431C51.4224 29.5423 51.5231 29.4038 51.6029 29.2274C51.6827 29.0511 51.7247 28.8453 51.7247 28.6102C51.7247 28.3751 51.6785 28.1735 51.5861 27.9972C51.4937 27.825 51.3762 27.6865 51.2418 27.5899C51.1033 27.4933 50.9605 27.4429 50.8051 27.4429H49.0501V29.7943Z" fill="#1B3764"/>
<path d="M57.5989 34.2953V25.7004H61.2687C61.6802 25.7004 62.058 25.7844 62.4023 25.9482C62.7466 26.1119 63.0406 26.3345 63.2925 26.6158C63.5444 26.8929 63.7376 27.2078 63.8719 27.5563C64.0105 27.9048 64.0777 28.2575 64.0777 28.6228C64.0777 29.114 63.9643 29.5843 63.7334 30.0252C63.5024 30.4703 63.1833 30.8313 62.776 31.1085C62.3688 31.3856 61.8859 31.5241 61.3275 31.5241H59.585V34.2953H57.5989ZM59.5808 29.7943H61.2015C61.3526 29.7943 61.4954 29.7481 61.6256 29.6599C61.7557 29.5717 61.8607 29.4374 61.9405 29.261C62.0203 29.0847 62.0622 28.8663 62.0622 28.606C62.0622 28.3415 62.0161 28.1189 61.9237 27.9468C61.8313 27.7746 61.7137 27.6445 61.571 27.5647C61.4282 27.4849 61.2813 27.4429 61.1301 27.4429H59.5808V29.7943Z" fill="#1B3764"/>
<path d="M66.5674 34.2957V32.3223H68.1546V34.2957H66.5674Z" fill="#1B3764"/>
<path d="M18.9113 70.0187V70.2034C18.7265 70.2412 18.5838 70.3042 18.4914 70.3966C18.3948 70.4889 18.3318 70.6317 18.3024 70.8248C18.2731 71.018 18.2563 71.2909 18.2563 71.6436V76.5688C18.1639 76.5562 18.0631 76.552 17.9539 76.552C17.8448 76.552 17.7314 76.5562 17.6055 76.5688L13.5074 72.0887V74.7549C13.5074 75.1664 13.5242 75.4855 13.5578 75.7038C13.5914 75.9222 13.6754 76.0817 13.8056 76.1741C13.9399 76.2707 14.1499 76.3378 14.4396 76.384V76.5688C14.3178 76.5562 14.1541 76.5478 13.9567 76.5436C13.7594 76.5394 13.5746 76.5394 13.4025 76.5394C13.2681 76.5394 13.1296 76.5394 12.9868 76.5436C12.844 76.5478 12.7265 76.5562 12.6341 76.5688V76.384C12.8272 76.342 12.9658 76.2749 13.0582 76.1867C13.1505 76.0985 13.2135 75.9558 13.2429 75.7584C13.2723 75.5611 13.2891 75.2882 13.2891 74.9439V71.0012C13.2891 70.7745 13.2723 70.6065 13.2429 70.4973C13.2135 70.3882 13.1505 70.3168 13.054 70.2748C12.9574 70.2328 12.8188 70.2118 12.6341 70.2034V70.0187C12.7265 70.0229 12.844 70.0313 12.9868 70.0355C13.1296 70.0397 13.2681 70.0439 13.4025 70.0439C13.5578 70.0439 13.709 70.0397 13.8559 70.0355C14.0029 70.0313 14.1373 70.0229 14.2548 70.0187L18.0421 74.0159V71.8326C18.0421 71.4211 18.0253 71.102 17.9917 70.8836C17.9581 70.6653 17.8742 70.5057 17.7482 70.4092C17.618 70.3126 17.4039 70.2412 17.11 70.2076V70.0229C17.2318 70.0271 17.3955 70.0355 17.5929 70.0397C17.7902 70.0439 17.9749 70.0481 18.1471 70.0481C18.2899 70.0481 18.4284 70.0439 18.567 70.0397C18.7013 70.0313 18.8189 70.0229 18.9113 70.0187Z" fill="#1B3764"/>
<path d="M26.8805 70.0187C26.8553 70.3252 26.8385 70.6233 26.8301 70.913C26.8217 71.1985 26.8175 71.4211 26.8175 71.5764C26.8175 71.7066 26.8217 71.8284 26.8259 71.9459C26.8301 72.0635 26.8385 72.1601 26.8427 72.244H26.6286C26.553 71.7318 26.4312 71.3287 26.2591 71.0348C26.0869 70.7409 25.8854 70.5351 25.6544 70.4134C25.4235 70.2916 25.18 70.2328 24.928 70.2328H24.8063C24.6467 70.2328 24.525 70.2454 24.4452 70.2748C24.3654 70.3042 24.3108 70.3546 24.2814 70.4386C24.252 70.5183 24.2394 70.6443 24.2394 70.8164V75.7752C24.2394 75.9432 24.252 76.0649 24.2814 76.1489C24.3108 76.2329 24.3612 76.2875 24.4452 76.3168C24.525 76.3462 24.6467 76.3588 24.8063 76.3588H25.1128C25.3143 76.3588 25.5327 76.2917 25.7552 76.1615C25.9819 76.0271 26.1877 75.8004 26.3808 75.4813C26.574 75.1622 26.7167 74.7213 26.8175 74.1671H27.0316C27.0148 74.3896 27.0022 74.6751 27.0022 75.0194C27.0022 75.1748 27.0064 75.3931 27.0106 75.6828C27.0148 75.9684 27.0358 76.2665 27.0652 76.5772C26.7503 76.5646 26.3976 76.5562 26.0029 76.552C25.6082 76.5478 25.2555 76.5478 24.949 76.5478C24.7265 76.5478 24.4284 76.5478 24.0547 76.5478C23.681 76.5478 23.2863 76.5478 22.8706 76.552C22.455 76.5562 22.0687 76.5646 21.7076 76.5772V76.3924C21.9007 76.3798 22.0393 76.3546 22.1317 76.3168C22.224 76.2791 22.287 76.2077 22.3164 76.0943C22.3458 75.9851 22.3626 75.8172 22.3626 75.5947V71.0012C22.3626 70.7745 22.3458 70.6065 22.3164 70.4973C22.287 70.3882 22.224 70.3168 22.1275 70.2748C22.0309 70.2328 21.8923 70.2118 21.7076 70.2034V70.0187C22.0645 70.0229 22.4508 70.0313 22.8706 70.0355C23.2863 70.0397 23.681 70.0439 24.0547 70.0439C24.4284 70.0439 24.7265 70.0439 24.949 70.0439C25.2346 70.0439 25.5537 70.0439 25.9148 70.0397C26.2717 70.0397 26.595 70.0313 26.8805 70.0187ZM25.5369 73.1846V73.3693H23.9623V73.1846H25.5369ZM25.8056 71.9627C25.7804 72.3154 25.772 72.5841 25.772 72.7689C25.7762 72.9536 25.7762 73.1216 25.7762 73.2769C25.7762 73.4323 25.7804 73.6002 25.7846 73.785C25.7888 73.9697 25.8056 74.2385 25.8308 74.5911H25.6166C25.5789 74.3644 25.5033 74.1545 25.3899 73.9697C25.2765 73.785 25.1296 73.638 24.949 73.5289C24.7685 73.4197 24.5628 73.3651 24.3276 73.3651V73.1804C24.5628 73.1804 24.7643 73.1174 24.9364 72.9872C25.1086 72.8571 25.2514 72.6975 25.3605 72.5086C25.4697 72.3196 25.5453 72.1391 25.5831 71.9585H25.8056V71.9627Z" fill="#1B3764"/>
<path d="M32.3769 70.0187V70.2034C32.2719 70.2202 32.2005 70.2748 32.1669 70.3672C32.1333 70.4554 32.1249 70.5603 32.1375 70.6737C32.1543 70.7871 32.1753 70.892 32.2089 70.9844L33.6071 74.9187L33.3468 75.3175L34.4553 72.3112L34.5854 72.5799L33.1704 76.5772C33.0949 76.573 33.0193 76.5646 32.9353 76.5646C32.8513 76.5646 32.7673 76.5604 32.6792 76.5604C32.5994 76.5604 32.5154 76.5604 32.4356 76.5646C32.3517 76.5688 32.2719 76.573 32.2005 76.5772L30.0549 70.8039C29.9752 70.5897 29.887 70.4386 29.7862 70.3504C29.6896 70.2622 29.5931 70.216 29.5091 70.2118V70.0271C29.7316 70.0313 29.992 70.0397 30.2901 70.0439C30.5882 70.0481 30.8737 70.0523 31.1466 70.0523C31.4195 70.0523 31.6589 70.0481 31.8688 70.0439C32.0787 70.0313 32.2467 70.0229 32.3769 70.0187ZM39.0697 70.0187V70.2034C38.927 70.2706 38.78 70.405 38.6246 70.6023C38.4693 70.7996 38.3307 71.0978 38.209 71.5008L36.6554 76.573C36.5798 76.5688 36.5043 76.5604 36.4203 76.5604C36.3363 76.5604 36.2523 76.5562 36.1642 76.5562C36.0844 76.5562 36.0004 76.5562 35.9206 76.5604C35.8367 76.5646 35.7569 76.5688 35.6855 76.573L33.7415 70.6401C33.6911 70.4805 33.6281 70.3672 33.5483 70.3084C33.4685 70.2454 33.3762 70.2118 33.2712 70.2076V70.0229C33.4811 70.0271 33.7289 70.0355 34.0102 70.0397C34.2957 70.0439 34.5812 70.0481 34.8709 70.0481C35.1607 70.0481 35.4336 70.0439 35.6897 70.0397C35.9458 70.0355 36.1516 70.0271 36.3069 70.0229V70.2076C36.1138 70.2118 35.9668 70.237 35.8619 70.279C35.7569 70.321 35.6981 70.3924 35.6813 70.5015C35.6645 70.6107 35.6939 70.7703 35.7695 70.9886L37.0375 74.8389L36.7688 75.4015L37.7051 72.412C37.8773 71.8619 37.9612 71.4295 37.9528 71.1104C37.9486 70.7913 37.8731 70.5645 37.7303 70.426C37.5875 70.2874 37.3944 70.216 37.1467 70.2076V70.0229C37.3818 70.0271 37.5875 70.0355 37.7723 70.0397C37.9528 70.0439 38.1502 70.0481 38.3601 70.0481C38.4819 70.0481 38.6079 70.0439 38.738 70.0397C38.864 70.0313 38.9773 70.0229 39.0697 70.0187Z" fill="#1B3764"/>
<path d="M51.2125 70.0106V70.1954C51.0697 70.2625 50.9186 70.3927 50.759 70.5775C50.5995 70.7622 50.4231 71.0477 50.23 71.4256L48.5631 74.73H47.9416L45.7751 70.7244C45.6701 70.5271 45.5735 70.3927 45.4812 70.3171C45.3888 70.2416 45.309 70.208 45.2418 70.208V70.0148C45.435 70.0316 45.6323 70.0484 45.838 70.0568C46.0438 70.0652 46.2705 70.0694 46.5183 70.0694C46.8332 70.0694 47.1733 70.0652 47.5428 70.0526C47.908 70.04 48.2481 70.0274 48.5547 70.0148V70.208C48.3993 70.208 48.2565 70.2122 48.1306 70.2248C48.0004 70.2374 47.908 70.2667 47.8535 70.3129C47.7989 70.3591 47.7989 70.4389 47.8535 70.5565L49.2517 73.2395L48.815 73.8147L49.5918 72.2612C49.8521 71.7489 49.9948 71.3458 50.02 71.0477C50.0494 70.7538 49.9948 70.5355 49.8563 70.4053C49.7219 70.2709 49.5288 70.2038 49.281 70.1954V70.0106C49.5162 70.0148 49.7219 70.0232 49.9067 70.0274C50.0872 70.0316 50.2846 70.0358 50.4945 70.0358C50.6163 70.0358 50.7422 70.0316 50.8724 70.0274C51.0067 70.0232 51.1201 70.0148 51.2125 70.0106ZM49.3692 72.933V75.5908C49.3692 75.8133 49.386 75.9813 49.4196 76.0905C49.4532 76.1996 49.5162 76.2752 49.6086 76.313C49.7009 76.3508 49.8395 76.376 50.0242 76.3886V76.5733C49.8437 76.5607 49.6086 76.5523 49.3104 76.5481C49.0165 76.5439 48.7226 76.5439 48.4329 76.5439C48.118 76.5439 47.8157 76.5439 47.5218 76.5481C47.2278 76.5523 46.9969 76.5607 46.8332 76.5733V76.3886C47.0263 76.376 47.1649 76.3508 47.2572 76.313C47.3496 76.2752 47.4126 76.2038 47.442 76.0905C47.4714 75.9813 47.4882 75.8133 47.4882 75.5908V73.6929L48.4959 74.2682L49.3692 72.933Z" fill="#1B3764"/>
<path d="M56.969 69.8889C57.666 69.8889 58.279 70.0233 58.7997 70.2878C59.3245 70.5523 59.7318 70.9344 60.0215 71.4299C60.3112 71.9253 60.4582 72.5299 60.4582 73.2395C60.4582 73.9323 60.3112 74.537 60.0131 75.0534C59.715 75.5699 59.3035 75.9771 58.7787 76.2669C58.2497 76.5566 57.645 76.7035 56.9606 76.7035C56.2636 76.7035 55.6506 76.5692 55.13 76.3047C54.6051 76.0401 54.1978 75.658 53.9081 75.1584C53.6184 74.6587 53.4714 74.0583 53.4714 73.3529C53.4714 72.6601 53.6226 72.0555 53.9207 71.539C54.2188 71.0226 54.6303 70.6153 55.1551 70.3256C55.68 70.0359 56.2846 69.8889 56.969 69.8889ZM56.9312 70.0569C56.6247 70.0569 56.356 70.1954 56.1251 70.4725C55.8983 70.7497 55.722 71.1318 55.596 71.6188C55.4743 72.1059 55.4113 72.6727 55.4113 73.3109C55.4113 73.9659 55.4827 74.5328 55.6254 75.0198C55.7682 75.5027 55.9571 75.8764 56.2006 76.1409C56.44 76.4012 56.7045 76.5356 56.9984 76.5356C57.3049 76.5356 57.5736 76.397 57.8046 76.1199C58.0313 75.8428 58.2077 75.4565 58.3336 74.9694C58.4554 74.4782 58.5184 73.9155 58.5184 73.2815C58.5184 72.6223 58.447 72.0513 58.3042 71.5684C58.1615 71.0856 57.9725 70.7161 57.729 70.4516C57.4855 70.187 57.2209 70.0569 56.9312 70.0569Z" fill="#1B3764"/>
<path d="M63.2881 70.0187C63.4687 70.0229 63.7038 70.0313 63.9977 70.0355C64.2917 70.0397 64.5856 70.0439 64.8837 70.0439C65.1902 70.0439 65.4883 70.0397 65.7738 70.0355C66.0593 70.0313 66.2567 70.0271 66.3743 70.0271C67.3106 70.0271 68.0118 70.1572 68.4694 70.4218C68.9271 70.6821 69.158 71.0894 69.158 71.6394C69.158 71.8661 69.1119 72.0887 69.0195 72.307C68.9271 72.5212 68.7718 72.7185 68.5492 72.8948C68.3267 73.0712 68.0244 73.2098 67.6381 73.3105C67.2518 73.4113 66.7647 73.4617 66.1727 73.4617H65.2826V73.2769H66.0803C66.3952 73.2769 66.6346 73.2056 66.7983 73.067C66.9621 72.9284 67.0713 72.7437 67.13 72.5128C67.1888 72.2818 67.2182 72.0257 67.2182 71.7402C67.2182 71.2531 67.151 70.8752 67.0209 70.6065C66.8865 70.3378 66.6598 70.2034 66.3323 70.2034C66.1223 70.2034 65.988 70.2538 65.925 70.3588C65.862 70.4638 65.8326 70.6779 65.8326 70.997V75.5863C65.8326 75.8088 65.8494 75.9768 65.883 76.0859C65.9166 76.1951 65.9796 76.2707 66.0719 76.3085C66.1643 76.3462 66.3029 76.3714 66.4876 76.384V76.5688C66.3071 76.5562 66.0803 76.5478 65.799 76.5436C65.5177 76.5394 65.2322 76.5394 64.9425 76.5394C64.6108 76.5394 64.2959 76.5394 64.0019 76.5436C63.708 76.5478 63.4729 76.5562 63.2923 76.5688V76.384C63.4855 76.3714 63.6241 76.3462 63.7164 76.3085C63.8088 76.2707 63.8718 76.1993 63.9012 76.0859C63.9306 75.9768 63.9474 75.8088 63.9474 75.5863V71.0012C63.9474 70.7745 63.9306 70.6065 63.9012 70.4973C63.8718 70.3882 63.8088 70.3168 63.7122 70.2748C63.6157 70.2328 63.4771 70.2118 63.2923 70.2034V70.0187H63.2881ZM65.2238 73.3021C65.4463 73.3063 65.6563 73.3189 65.8536 73.3399C66.0509 73.3567 66.2315 73.3735 66.3994 73.3903C66.5674 73.4071 66.706 73.4155 66.8235 73.4239C67.4827 73.4533 67.9782 73.5708 68.3099 73.7682C68.6416 73.9655 68.8431 74.2552 68.9145 74.6373L69.1077 75.5989C69.158 75.8256 69.2126 75.9851 69.2756 76.0691C69.3386 76.1573 69.4226 76.1993 69.5275 76.1993C69.5905 76.1993 69.6409 76.1909 69.6829 76.1699C69.7249 76.1531 69.7711 76.1195 69.8131 76.0775L69.9348 76.1993C69.7417 76.3924 69.5359 76.5226 69.3092 76.594C69.0825 76.6653 68.8305 76.6989 68.545 76.6989C68.1419 76.6989 67.8186 76.6276 67.5751 76.4806C67.3274 76.3336 67.1762 76.0733 67.1216 75.6996L66.9831 74.7759C66.9453 74.524 66.8991 74.2972 66.8445 74.0999C66.7899 73.9025 66.7144 73.7472 66.622 73.6338C66.5296 73.5205 66.4036 73.4617 66.2441 73.4617H65.2448L65.2238 73.3021Z" fill="#1B3764"/>
<path d="M75.4688 70.0187V70.2034C75.284 70.2076 75.1455 70.2328 75.0489 70.2748C74.9523 70.3168 74.8893 70.3882 74.8599 70.4973C74.8306 70.6065 74.8138 70.7745 74.8138 71.0012V75.5905C74.8138 75.813 74.8306 75.9809 74.8641 76.0901C74.8977 76.1993 74.9607 76.2749 75.0531 76.3127C75.1455 76.3504 75.284 76.3756 75.4688 76.3882V76.573C75.2882 76.5604 75.0615 76.552 74.7802 76.5478C74.4989 76.5436 74.2133 76.5436 73.9236 76.5436C73.5919 76.5436 73.277 76.5436 72.9831 76.5478C72.6892 76.552 72.454 76.5604 72.2735 76.573V76.3882C72.4666 76.3756 72.6052 76.3504 72.6976 76.3127C72.7899 76.2749 72.8529 76.2035 72.8823 76.0901C72.9117 75.9809 72.9285 75.813 72.9285 75.5905V71.0012C72.9285 70.7745 72.9117 70.6065 72.8823 70.4973C72.8529 70.3882 72.7899 70.3168 72.6934 70.2748C72.5968 70.2328 72.4582 70.2118 72.2735 70.2034V70.0187C72.454 70.0229 72.6892 70.0313 72.9831 70.0355C73.277 70.0397 73.5877 70.0439 73.9236 70.0439C74.2133 70.0439 74.4989 70.0397 74.7802 70.0355C75.0615 70.0313 75.2882 70.0229 75.4688 70.0187ZM78.8572 70.0187V70.195C78.6472 70.2496 78.4163 70.3504 78.1602 70.5015C77.9041 70.6485 77.6311 70.8878 77.3414 71.2153L75.6367 73.151L76.3883 72.1685L78.5801 75.8256C78.6598 75.9558 78.7396 76.0649 78.8194 76.1489C78.8992 76.2371 79.0083 76.3168 79.1427 76.3882V76.573C78.8824 76.5604 78.6095 76.552 78.3155 76.5478C78.0216 76.5436 77.7445 76.5436 77.48 76.5436C77.3372 76.5436 77.1609 76.5436 76.9509 76.5478C76.741 76.552 76.4765 76.5604 76.1532 76.573V76.3882C76.4429 76.3756 76.6108 76.342 76.657 76.2875C76.7032 76.2329 76.6822 76.1279 76.5856 75.9726L75.242 73.7052C75.1791 73.596 75.1245 73.5121 75.0741 73.4575C75.0237 73.4029 74.9775 73.3609 74.9313 73.3357C74.8851 73.3105 74.8264 73.2937 74.7508 73.2895V73.0964C75.0237 73.0838 75.2798 72.9914 75.5192 72.8235C75.7585 72.6555 76.0482 72.3784 76.3883 71.9963L76.7032 71.6436C76.9635 71.3539 77.0979 71.102 77.1147 70.8878C77.1315 70.6737 77.0643 70.5099 76.9215 70.3882C76.7746 70.2664 76.5856 70.2034 76.3505 70.1992V70.0229C76.6108 70.0271 76.8502 70.0355 77.0685 70.0397C77.2868 70.0439 77.5682 70.0481 77.9167 70.0481C78.2987 70.0481 78.6095 70.0355 78.8572 70.0187Z" fill="#1B3764"/>
<path d="M95.2199 88.9847H0V0H95.2199V88.9847ZM0.512251 88.4725H94.7035V0.512251H0.512251V88.4725Z" fill="#1B3764"/>
<path d="M95.2074 58.3673H0.00842285V58.8922H95.2074V58.3673Z" fill="#1B3764"/>
<path d="M47.1606 49.336C39.5566 49.336 34.199 45.5025 34.1192 45.4437C33.7749 45.1918 33.7035 44.7089 33.9513 44.3646C34.2032 44.0203 34.686 43.949 35.0303 44.1967C35.488 44.5284 46.3503 52.2583 59.0978 44.1673C59.4588 43.9406 59.9333 44.0455 60.1642 44.4066C60.391 44.7677 60.286 45.2422 59.9249 45.4731C55.3608 48.3661 50.9773 49.336 47.1606 49.336Z" fill="#1B3764"/>
<path d="M34.6401 45.2214C34.3251 45.2214 34.027 45.024 33.9137 44.7091C33.7709 44.3102 33.9766 43.8652 34.3797 43.7224L39.3259 41.9505C39.729 41.8078 40.1698 42.0135 40.3126 42.4166C40.4554 42.8155 40.2496 43.2605 39.8465 43.4033L34.9004 45.1752C34.8164 45.2088 34.7282 45.2214 34.6401 45.2214Z" fill="#1B3764"/>
<path d="M36.7603 50.9014C36.458 50.9014 36.1724 50.725 36.0507 50.4311L33.7707 45.0273C33.607 44.6368 33.7875 44.1833 34.1822 44.0154C34.5727 43.8516 35.0262 44.0322 35.1941 44.4268L37.4741 49.8307C37.6378 50.2212 37.4573 50.6746 37.0626 50.8426C36.9618 50.8846 36.861 50.9014 36.7603 50.9014Z" fill="#1B3764"/>
</svg>
