<svg width="141" height="89" viewBox="0 0 141 89" fill="none" xmlns="http://www.w3.org/2000/svg">
<path d="M0.00012207 49.9366V44.8936H1.1665V48.9105H3.61058V49.9317H0.00012207V49.9366Z" fill="#1B3764"/>
<path d="M7.68565 49.9701C7.30815 49.9701 6.96452 49.8975 6.65962 49.7523C6.35471 49.6071 6.09337 49.4135 5.87074 49.1716C5.64811 48.9296 5.48356 48.6537 5.36257 48.3488C5.24641 48.0439 5.18349 47.7293 5.18349 47.4002C5.18349 47.0663 5.24641 46.7468 5.37225 46.4419C5.49808 46.137 5.67231 45.866 5.89494 45.6289C6.11757 45.3917 6.38375 45.203 6.6935 45.0626C6.9984 44.9271 7.33718 44.8545 7.70017 44.8545C8.07283 44.8545 8.41161 44.9271 8.72135 45.0723C9.02626 45.2175 9.2876 45.4111 9.51023 45.6579C9.72802 45.9047 9.89741 46.1806 10.0184 46.4855C10.1346 46.7904 10.1975 47.1001 10.1975 47.4196C10.1975 47.7535 10.1346 48.0729 10.0136 48.3778C9.89257 48.6827 9.7135 48.9538 9.48603 49.1909C9.25857 49.4281 8.99238 49.6216 8.68748 49.7572C8.38741 49.9024 8.05347 49.9701 7.68565 49.9701ZM6.37407 47.4147C6.37407 47.6083 6.40311 47.7971 6.46119 47.981C6.51927 48.1649 6.60154 48.3246 6.71286 48.4649C6.82417 48.6053 6.96452 48.7215 7.12907 48.8037C7.29363 48.8908 7.48238 48.9296 7.69533 48.9296C7.91795 48.9296 8.11154 48.886 8.2761 48.7989C8.44065 48.7118 8.581 48.5956 8.68748 48.4456C8.79395 48.2956 8.87622 48.1358 8.9343 47.9519C8.98754 47.768 9.01658 47.5841 9.01658 47.3954C9.01658 47.2018 8.98754 47.013 8.92946 46.8339C8.87139 46.6549 8.78911 46.4903 8.67296 46.35C8.5568 46.2096 8.42129 46.0935 8.2519 46.0112C8.08735 45.9289 7.8986 45.8902 7.69049 45.8902C7.46786 45.8902 7.27427 45.9338 7.10972 46.016C6.94516 46.1031 6.80965 46.2145 6.69834 46.3597C6.58702 46.5048 6.50475 46.6694 6.45151 46.8485C6.40311 47.0372 6.37407 47.226 6.37407 47.4147Z" fill="#1B3764"/>
<path d="M15.2889 46.379C15.2744 46.3548 15.226 46.3161 15.1389 46.2677C15.0517 46.2193 14.9453 46.1661 14.8194 46.108C14.6936 46.0499 14.5533 46.0015 14.3984 45.958C14.2483 45.9144 14.0935 45.895 13.9434 45.895C13.745 45.895 13.5901 45.9289 13.4837 45.9967C13.3724 46.0644 13.3191 46.1709 13.3191 46.3113C13.3191 46.4226 13.3627 46.5145 13.4449 46.5774C13.5272 46.6452 13.6482 46.6984 13.8031 46.7517C13.958 46.8001 14.1516 46.8581 14.379 46.9259C14.7033 47.0082 14.9792 47.1147 15.2163 47.2308C15.4534 47.3518 15.6325 47.5067 15.7584 47.6906C15.8842 47.8745 15.9471 48.1262 15.9471 48.4359C15.9471 48.7166 15.8939 48.9586 15.7922 49.1522C15.6906 49.3458 15.5454 49.5055 15.3712 49.6265C15.1921 49.7475 14.9937 49.8346 14.7662 49.8878C14.5387 49.9411 14.3064 49.9701 14.0644 49.9701C13.8176 49.9701 13.5659 49.9459 13.3094 49.8975C13.0529 49.8491 12.8061 49.7765 12.569 49.6846C12.3318 49.5926 12.114 49.4813 11.9156 49.3458L12.4286 48.3294C12.448 48.3536 12.5109 48.3972 12.6125 48.4601C12.7141 48.523 12.8448 48.5908 12.9997 48.6585C13.1546 48.7263 13.324 48.7892 13.5127 48.8376C13.7015 48.8908 13.895 48.915 14.0886 48.915C14.2967 48.915 14.4516 48.8812 14.5533 48.8183C14.6549 48.7553 14.7081 48.6634 14.7081 48.5472C14.7081 48.4214 14.6549 48.3198 14.5484 48.252C14.4419 48.1794 14.2967 48.1165 14.1177 48.0632C13.9338 48.0052 13.7257 47.9423 13.4885 47.8745C13.1788 47.7825 12.9271 47.6761 12.7238 47.5551C12.5206 47.4389 12.3754 47.2937 12.2786 47.1243C12.1818 46.9549 12.1334 46.742 12.1334 46.4903C12.1334 46.137 12.2157 45.8418 12.385 45.595C12.5544 45.353 12.7771 45.1691 13.0626 45.0432C13.3482 44.9174 13.6579 44.8545 13.9918 44.8545C14.229 44.8545 14.4565 44.8835 14.6791 44.9416C14.9017 44.9997 15.105 45.0674 15.2986 45.1546C15.4922 45.2417 15.6616 45.3239 15.8116 45.4111L15.2889 46.379Z" fill="#1B3764"/>
<path d="M125.146 46.0365V48.921H123.98V43.8779H124.904L127.242 46.8447V43.8779H128.408V48.9161H127.46L125.146 46.0365Z" fill="#1B3764"/>
<path d="M131.569 43.8779L132.653 46.1091L133.751 43.8779H135.029L133.234 47.198V48.9161H132.077V47.1883L130.31 43.8828H131.569V43.8779Z" fill="#1B3764"/>
<path d="M136.297 46.3506C136.297 46.0409 136.355 45.7408 136.467 45.4456C136.578 45.1504 136.747 44.8793 136.965 44.6422C137.183 44.4002 137.449 44.2066 137.759 44.0614C138.073 43.9162 138.427 43.8436 138.824 43.8436C139.298 43.8436 139.709 43.9453 140.053 44.1485C140.396 44.3518 140.658 44.618 140.832 44.9423L139.937 45.5666C139.859 45.3875 139.762 45.2472 139.637 45.1455C139.511 45.0439 139.375 44.9761 139.225 44.9374C139.075 44.8987 138.935 44.8793 138.795 44.8793C138.572 44.8793 138.378 44.9229 138.214 45.01C138.049 45.0971 137.909 45.2133 137.802 45.3633C137.691 45.5085 137.614 45.6731 137.56 45.8521C137.507 46.0312 137.483 46.2103 137.483 46.3893C137.483 46.5878 137.512 46.7814 137.575 46.9653C137.638 47.1492 137.725 47.3137 137.841 47.4541C137.957 47.5944 138.098 47.7106 138.262 47.7929C138.427 47.8751 138.611 47.9187 138.809 47.9187C138.949 47.9187 139.095 47.8945 139.245 47.8461C139.39 47.7977 139.525 47.7251 139.651 47.6235C139.777 47.5218 139.874 47.3863 139.937 47.2218L140.89 47.7832C140.788 48.03 140.629 48.2381 140.401 48.4172C140.174 48.5914 139.917 48.7269 139.632 48.8189C139.346 48.9109 139.061 48.9592 138.785 48.9592C138.422 48.9592 138.088 48.8866 137.778 48.7366C137.468 48.5866 137.212 48.3882 136.989 48.1413C136.767 47.8945 136.597 47.6138 136.476 47.3041C136.36 46.9895 136.297 46.67 136.297 46.3506Z" fill="#1B3764"/>
<path d="M66.4548 0V0.425898C66.0289 0.440417 65.7046 0.493655 65.482 0.58561C65.2593 0.677565 65.1141 0.846957 65.0464 1.09862C64.9738 1.34545 64.9399 1.73747 64.9399 2.26016V12.8399C64.9399 13.3529 64.9786 13.7352 65.0561 13.9917C65.1335 14.2482 65.2787 14.4176 65.4916 14.5047C65.7046 14.5919 66.024 14.6451 66.4499 14.6741V15.1C66.0095 15.071 65.4481 15.0516 64.7657 15.0468C64.0833 15.0419 63.3863 15.0371 62.6749 15.0371C61.9054 15.0371 61.1843 15.0419 60.5115 15.0468C59.834 15.0565 59.2919 15.071 58.8805 15.1V14.6741C59.3645 14.6451 59.7323 14.587 59.9792 14.5047C60.226 14.4176 60.3954 14.2482 60.4825 13.9917C60.5696 13.7352 60.6083 13.3529 60.6083 12.8399V1.42773L60.8213 1.38417L55.4685 15.0807H55.1249L49.1091 1.38417V10.9185C49.1091 11.8719 49.1478 12.6027 49.2252 13.106C49.3027 13.6094 49.4963 13.9724 49.8012 14.195C50.1061 14.4176 50.5949 14.5773 51.2628 14.6741V15.1C50.9772 15.071 50.6094 15.0516 50.1545 15.0468C49.6995 15.0419 49.2736 15.0371 48.8768 15.0371C48.5622 15.0371 48.2428 15.0419 47.9185 15.0468C47.5894 15.0565 47.3232 15.071 47.1103 15.1V14.6741C47.5507 14.5725 47.8798 14.4225 48.0927 14.2144C48.3057 14.0062 48.446 13.6771 48.5186 13.2222C48.5912 12.7673 48.6251 12.1429 48.6251 11.3444V2.26016C48.6251 1.73263 48.5912 1.34545 48.5186 1.09862C48.446 0.851796 48.3008 0.677565 48.0831 0.58561C47.8604 0.493655 47.541 0.440417 47.1103 0.425898V0C47.3232 0.0145193 47.5942 0.0290385 47.9185 0.0435578C48.2476 0.058077 48.567 0.0629168 48.8768 0.0629168C49.6995 0.0629168 50.4884 0.058077 51.2434 0.0435578C51.9984 0.0290385 52.6808 0.0145193 53.2906 0L57.5157 9.51495L56.8769 10.2167L60.8213 0.0629168C61.1068 0.0629168 61.4117 0.0629168 61.7408 0.0629168C62.0699 0.0629168 62.3797 0.0629168 62.6797 0.0629168C63.3912 0.0629168 64.0881 0.058077 64.7705 0.0435578C65.4529 0.0290385 66.0143 0.0145193 66.4548 0Z" fill="#1B3764"/>
<path d="M90.2373 0C90.1792 0.711444 90.1405 1.39869 90.1211 2.05689C90.1018 2.71994 90.0873 3.22811 90.0873 3.58142C90.0873 3.88148 90.0921 4.16703 90.1066 4.43321C90.1211 4.70424 90.1357 4.93171 90.1502 5.11562H89.6614C89.492 3.93472 89.2064 3.00549 88.8096 2.33276C88.4127 1.6552 87.9433 1.1809 87.4109 0.905034C86.8785 0.629168 86.3171 0.488815 85.7363 0.488815H85.4605C85.0926 0.488815 84.8119 0.522693 84.628 0.58561C84.4441 0.648527 84.3183 0.77436 84.2554 0.958271C84.1924 1.14218 84.1586 1.43257 84.1586 1.83427V13.2706C84.1586 13.6529 84.1924 13.9433 84.2554 14.1369C84.3183 14.3305 84.4441 14.4563 84.628 14.5193C84.8119 14.5822 85.0878 14.6161 85.4605 14.6161H86.1671C86.6365 14.6161 87.1302 14.4612 87.648 14.1563C88.1659 13.8514 88.645 13.3287 89.0854 12.5882C89.5259 11.8477 89.8598 10.841 90.0873 9.55851H90.5761C90.5325 10.0715 90.5132 10.7249 90.5132 11.5234C90.5132 11.8768 90.518 12.3898 90.5325 13.048C90.547 13.711 90.5906 14.3934 90.6584 15.1049C89.9324 15.0758 89.1145 15.0565 88.2046 15.0516C87.2947 15.0468 86.4817 15.0419 85.7702 15.0419C85.2572 15.0419 84.57 15.0419 83.7133 15.0419C82.8518 15.0419 81.942 15.0468 80.9837 15.0516C80.0254 15.0613 79.1301 15.0758 78.3073 15.1049V14.679C78.7477 14.6499 79.0768 14.5919 79.2898 14.5096C79.5027 14.4273 79.6431 14.2531 79.7157 13.9966C79.7883 13.7401 79.8221 13.3577 79.8221 12.8447V2.26016C79.8221 1.73263 79.7883 1.34545 79.7157 1.09862C79.6431 0.851796 79.4979 0.677565 79.2801 0.58561C79.0575 0.493655 78.738 0.440417 78.3121 0.425898V0C79.1349 0.0145193 80.0303 0.0290385 80.9885 0.0435578C81.9468 0.058077 82.8567 0.0629168 83.7182 0.0629168C84.5796 0.0629168 85.2669 0.0629168 85.775 0.0629168C86.4284 0.0629168 87.1737 0.058077 88.0062 0.0532373C88.8434 0.0483975 89.5839 0.0290385 90.2373 0ZM87.1447 7.29351V7.7194H83.5197V7.29351H87.1447ZM87.7642 4.48161C87.7061 5.28985 87.6819 5.90934 87.6916 6.33524C87.6964 6.76113 87.7013 7.15315 87.7013 7.50646C87.7013 7.85976 87.7061 8.25178 87.7206 8.67768C87.7351 9.10357 87.769 9.72306 87.8271 10.5313H87.3383C87.2512 10.0038 87.0769 9.52947 86.8156 9.10357C86.5543 8.67768 86.2155 8.33889 85.8041 8.09206C85.3927 7.84524 84.9136 7.7194 84.3764 7.7194V7.29351C84.9184 7.29351 85.3879 7.14347 85.7847 6.84341C86.1816 6.54334 86.5107 6.18036 86.7672 5.74479C87.0237 5.30921 87.1931 4.88815 87.2802 4.47677H87.7642V4.48161Z" fill="#1B3764"/>
<path d="M44.492 36.2063C45.489 36.2063 46.3069 36.3418 46.9457 36.6128C47.5846 36.8839 48.146 37.2081 48.63 37.5953C48.7848 37.7211 48.93 37.7889 49.0559 37.7889C49.3269 37.7889 49.5011 37.363 49.5882 36.5112H50.077C50.048 37.0823 50.0286 37.7744 50.0141 38.5923C49.9996 39.4102 49.9948 40.4943 49.9948 41.8446H49.5059C49.4043 40.8186 49.2301 39.9619 48.9833 39.2747C48.7364 38.5875 48.2525 37.997 47.541 37.513C47.2409 37.3146 46.8925 37.1597 46.4956 37.0436C46.0988 36.9323 45.7116 36.8742 45.3438 36.8742C44.5162 36.8742 43.8338 37.0968 43.2965 37.5469C42.7545 37.997 42.3238 38.5778 42.0043 39.2941C41.6849 40.0103 41.4574 40.7944 41.3219 41.6413C41.1864 42.4883 41.1187 43.3111 41.1187 44.1048C41.1187 46.665 41.4332 48.5331 42.0576 49.714C42.6819 50.8949 43.5143 51.4854 44.5549 51.4854C44.7823 51.4854 44.9808 51.466 45.1502 51.4225C45.3196 51.3789 45.4696 51.316 45.6003 51.2289C45.7551 51.1176 45.8713 50.9724 45.9439 50.803C46.0165 50.6336 46.0504 50.4207 46.0504 50.1641V48.0298C46.0504 47.3329 45.9971 46.815 45.8907 46.4714C45.7842 46.1278 45.5761 45.8955 45.2615 45.7696C44.9469 45.6438 44.492 45.5712 43.8967 45.5567V45.1308C44.2258 45.1453 44.6226 45.155 45.0921 45.1647C45.5615 45.1744 46.0504 45.1792 46.5634 45.184C47.0764 45.1937 47.5458 45.1937 47.9717 45.1937C48.6542 45.1937 49.2833 45.1889 49.8592 45.1744C50.4352 45.1598 50.8998 45.1453 51.2579 45.1308V45.5567C50.8998 45.5857 50.6675 45.6971 50.5513 45.9003C50.4352 46.0988 50.3819 46.5972 50.3819 47.3958V51.6209H49.956C49.9415 51.3789 49.8834 51.1176 49.7867 50.832C49.685 50.5465 49.5253 50.4061 49.2978 50.4061C49.1817 50.4061 49.022 50.4352 48.8187 50.4932C48.6106 50.5513 48.2863 50.6868 47.8459 50.8998C47.2893 51.1708 46.7037 51.408 46.0842 51.6161C45.4648 51.8242 44.8501 51.9258 44.2403 51.9258C41.5639 51.9258 39.5603 51.2483 38.2245 49.8883C36.8887 48.5283 36.2208 46.636 36.2208 44.2016C36.2208 42.6093 36.5741 41.2154 37.2759 40.02C37.9825 38.8246 38.9553 37.8954 40.1991 37.2275C41.4381 36.5402 42.8706 36.2063 44.492 36.2063Z" fill="#1B3764"/>
<path d="M70.4765 36.5058L75.6405 49.8151C75.8389 50.2991 76.0519 50.6427 76.2794 50.8508C76.5068 51.059 76.7149 51.1654 76.8988 51.1799V51.6058C76.3858 51.5768 75.7905 51.5574 75.1081 51.5526C74.4257 51.5478 73.7288 51.5429 73.0174 51.5429C72.2914 51.5429 71.609 51.5478 70.9702 51.5526C70.3313 51.5623 69.8183 51.5768 69.436 51.6058V51.1799C70.1619 51.1509 70.6217 51.0251 70.8104 50.8073C71.004 50.5847 70.9556 50.1152 70.6701 49.3892L67.2581 39.9372L67.684 39.1919L64.7414 46.8484C64.2719 48.0728 64.0396 48.9875 64.0493 49.6022C64.0541 50.212 64.2381 50.6234 64.5914 50.8266C64.9447 51.0348 65.4093 51.1509 65.9755 51.1799V51.6058C65.448 51.5768 64.9785 51.5574 64.5575 51.5526C64.1364 51.5478 63.6815 51.5429 63.183 51.5429C62.912 51.5429 62.6264 51.5478 62.3167 51.5526C62.0118 51.5623 61.7504 51.5768 61.5375 51.6058V51.1799C61.8666 51.1219 62.186 50.9138 62.5103 50.5508C62.8297 50.1878 63.1588 49.5683 63.5024 48.6826L68.2405 36.501C68.5842 36.53 68.9568 36.5445 69.3585 36.5445C69.7602 36.5494 70.1329 36.5349 70.4765 36.5058ZM71.2218 45.4642V45.8901H64.8624L65.0753 45.4642H71.2218Z" fill="#1B3764"/>
<path d="M102.09 36.5059V36.9318C101.664 37.0189 101.34 37.1641 101.117 37.3819C100.894 37.5948 100.749 37.9239 100.681 38.374C100.609 38.8241 100.575 39.4533 100.575 40.2615V51.6107C100.362 51.5817 100.13 51.5672 99.8828 51.5672C99.636 51.5672 99.365 51.5817 99.0843 51.6107L89.6322 41.2827V47.4292C89.6322 48.3826 89.671 49.1134 89.7484 49.6167C89.8258 50.1201 90.0194 50.4831 90.3243 50.7057C90.6292 50.9283 91.118 51.088 91.7859 51.1848V51.6107C91.5004 51.5817 91.1326 51.5623 90.6776 51.5575C90.2227 51.5526 89.7968 51.5478 89.3999 51.5478C89.0853 51.5478 88.7659 51.5526 88.4417 51.5575C88.1126 51.5672 87.8464 51.5817 87.6334 51.6107V51.1848C88.0738 51.0832 88.4029 50.9332 88.6159 50.725C88.8288 50.5169 88.9692 50.1878 89.0418 49.7329C89.1144 49.278 89.1483 48.6536 89.1483 47.8551V38.766C89.1483 38.2385 89.1144 37.8513 89.0418 37.6045C88.9692 37.3577 88.824 37.1834 88.6062 37.0915C88.3836 36.9995 88.0642 36.9463 87.6334 36.9318V36.5059C87.8464 36.5204 88.1174 36.5349 88.4417 36.5494C88.7708 36.5639 89.0902 36.5688 89.3999 36.5688C89.7532 36.5688 90.1065 36.5639 90.4453 36.5494C90.7889 36.5349 91.0938 36.5204 91.3649 36.5059L100.091 45.7207V40.6874C100.091 39.734 100.052 39.008 99.9748 38.4998C99.8974 37.9965 99.7086 37.6287 99.4085 37.4012C99.1085 37.1737 98.6197 37.0189 97.9373 36.9318V36.5059C98.2228 36.5204 98.5906 36.5349 99.0456 36.5494C99.5005 36.5639 99.9264 36.5688 100.323 36.5688C100.652 36.5688 100.972 36.5639 101.291 36.5494C101.611 36.5349 101.877 36.5204 102.09 36.5059Z" fill="#1B3764"/>
<path d="M47.3087 84.749C47.9766 84.749 48.4945 84.9039 48.8671 85.2088C49.2349 85.5137 49.4237 85.9735 49.4237 86.5833C49.4237 87.1931 49.2398 87.6529 48.8671 87.9578C48.4993 88.2627 47.9766 88.4176 47.3087 88.4176C46.6263 88.4176 46.1036 88.2627 45.7406 87.9578C45.3777 87.6529 45.1986 87.1931 45.1986 86.5833C45.1986 85.9735 45.3777 85.5137 45.7406 85.2088C46.1036 84.8991 46.6263 84.749 47.3087 84.749Z" fill="#1B3764"/>
<path d="M68.9375 73.0126V73.4385C68.5116 73.453 68.1874 73.5062 67.9647 73.5982C67.7421 73.6901 67.5969 73.8595 67.5292 74.1112C67.4566 74.358 67.4227 74.75 67.4227 75.2727V85.8524C67.4227 86.3654 67.4614 86.7478 67.5389 87.0043C67.6163 87.2608 67.7615 87.4302 67.9744 87.5173C68.1874 87.6044 68.5068 87.6577 68.9327 87.6867V88.1126C68.5213 88.0836 67.9889 88.0642 67.3453 88.0594C66.6967 88.0545 66.0385 88.0497 65.3706 88.0497C64.6011 88.0497 63.88 88.0545 63.2073 88.0594C62.5297 88.069 61.9877 88.0836 61.5763 88.1126V87.6867C62.0167 87.6577 62.3458 87.5996 62.5587 87.5173C62.7717 87.435 62.912 87.2608 62.9846 87.0043C63.0572 86.7478 63.0911 86.3654 63.0911 85.8524V75.2727C63.0911 74.7452 63.0572 74.358 62.9846 74.1112C62.912 73.8644 62.7669 73.6901 62.5491 73.5982C62.3264 73.5062 62.007 73.453 61.5811 73.4385V73.0126C61.9925 73.0271 62.5394 73.0416 63.2121 73.0561C63.8897 73.0706 64.6108 73.0755 65.3755 73.0755C66.0434 73.0755 66.7016 73.0706 67.3501 73.0561C67.9986 73.0416 68.5262 73.0271 68.9375 73.0126ZM76.7441 73.0126V73.4191C76.2601 73.5449 75.7229 73.7821 75.1324 74.1209C74.542 74.4645 73.9128 75.0114 73.2449 75.7615L69.3199 80.219L71.0477 77.9588L76.1052 86.3848C76.2891 86.6849 76.473 86.9317 76.6618 87.1301C76.8457 87.3286 77.0974 87.5125 77.4071 87.6867V88.1126C76.8118 88.0836 76.173 88.0642 75.5002 88.0594C74.8227 88.0545 74.179 88.0497 73.5692 88.0497C73.2401 88.0497 72.8384 88.0545 72.3544 88.0594C71.8704 88.069 71.2606 88.0836 70.5201 88.1126V87.6867C71.188 87.6577 71.5752 87.5802 71.6817 87.4544C71.7882 87.3286 71.7349 87.0866 71.522 86.7284L68.4294 81.5015C68.289 81.245 68.1583 81.0514 68.047 80.9256C67.9309 80.7997 67.8244 80.7029 67.7179 80.6497C67.6114 80.5916 67.4711 80.5577 67.3017 80.5432V80.0931C67.926 80.0641 68.5165 79.856 69.0731 79.464C69.6296 79.0719 70.2975 78.4379 71.0767 77.5571L71.8027 76.744C72.398 76.0761 72.7174 75.4954 72.7513 75.0065C72.7851 74.5177 72.6351 74.1306 72.3012 73.8547C71.9672 73.5788 71.5316 73.4336 70.9896 73.4191V73.0126C71.5849 73.0271 72.1366 73.0416 72.6448 73.0561C73.1481 73.0706 73.8015 73.0755 74.5952 73.0755C75.4615 73.0803 76.1778 73.0561 76.7441 73.0126Z" fill="#1B3764"/>
<path d="M90.7406 84.749C91.4085 84.749 91.9264 84.9039 92.299 85.2088C92.6669 85.5137 92.8556 85.9735 92.8556 86.5833C92.8556 87.1931 92.6717 87.6529 92.299 87.9578C91.9312 88.2627 91.4085 88.4176 90.7406 88.4176C90.0582 88.4176 89.5355 88.2627 89.1726 87.9578C88.8096 87.6529 88.6305 87.1931 88.6305 86.5833C88.6305 85.9735 88.8096 85.5137 89.1726 85.2088C89.5355 84.8991 90.0582 84.749 90.7406 84.749Z" fill="#1B3764"/>
<path d="M36.7636 11.5642L10.8615 34.9336L11.8342 36.0116L37.7362 12.6422L36.7636 11.5642Z" fill="#1B3764"/>
<path d="M101.738 11.5613L100.765 12.6395L126.671 36.0055L127.643 34.9273L101.738 11.5613Z" fill="#1B3764"/>
<path d="M12.3417 57.7872L11.3692 58.8654L37.2747 82.2313L38.2472 81.1531L12.3417 57.7872Z" fill="#1B3764"/>
<path d="M127.178 57.7829L101.276 81.1523L102.248 82.2304L128.15 58.861L127.178 57.7829Z" fill="#1B3764"/>
</svg>
