<svg width="189" height="76" viewBox="0 0 189 76" fill="none" xmlns="http://www.w3.org/2000/svg">
<path d="M16.0731 30.1515V30.5049C15.7198 30.5149 15.4522 30.5604 15.2654 30.6361C15.0837 30.7118 14.9626 30.8532 14.902 31.0601C14.8414 31.2671 14.8111 31.5902 14.8111 32.0243V40.813C14.8111 41.237 14.8414 41.555 14.907 41.7721C14.9726 41.9841 15.0938 42.1254 15.2705 42.1961C15.4472 42.2668 15.7147 42.3122 16.0681 42.3375V42.6908C15.6996 42.6656 15.2351 42.6504 14.6698 42.6454C14.1044 42.6403 13.5239 42.6353 12.9332 42.6353C12.2972 42.6353 11.6965 42.6403 11.1361 42.6454C10.5758 42.6504 10.1215 42.6656 9.77821 42.6908V42.3375C10.1821 42.3122 10.4849 42.2668 10.6919 42.1961C10.8989 42.1254 11.0352 41.9841 11.1109 41.7721C11.1816 41.5601 11.2169 41.242 11.2169 40.813V31.3378L11.3936 31.3024L6.94626 42.6807H6.66357L1.66601 31.3024V39.2279C1.66601 40.0204 1.6963 40.6262 1.76192 41.0452C1.82754 41.4642 1.98403 41.767 2.24148 41.9488C2.49389 42.1305 2.89773 42.2668 3.45301 42.3476V42.7009C3.21576 42.6757 2.90783 42.6605 2.52922 42.6555C2.15062 42.6504 1.79726 42.6454 1.46409 42.6454C1.20159 42.6454 0.939089 42.6504 0.666494 42.6555C0.403996 42.6605 0.176834 42.6757 0.000152588 42.7009V42.3476C0.36866 42.2668 0.636206 42.1355 0.812888 41.969C0.989569 41.7973 1.10567 41.5247 1.16625 41.1461C1.22683 40.7675 1.25712 40.2476 1.25712 39.5863V32.0294C1.25712 31.5902 1.22683 31.2722 1.16625 31.0652C1.10567 30.8582 0.984521 30.7169 0.802791 30.6411C0.621062 30.5654 0.353516 30.52 0.000152588 30.5049V30.1515C0.176834 30.1616 0.403996 30.1767 0.671542 30.1868C0.944137 30.1969 1.20663 30.207 1.46913 30.207C2.15567 30.207 2.81191 30.202 3.43787 30.1868C4.06383 30.1767 4.62921 30.1616 5.13906 30.1515L8.64745 38.0567L8.11741 38.6423L11.3936 30.207C11.6308 30.207 11.8832 30.207 12.1558 30.207C12.4284 30.207 12.6859 30.207 12.9332 30.207C13.5239 30.207 14.1044 30.202 14.6698 30.1868C15.2402 30.1767 15.7097 30.1616 16.0731 30.1515Z" fill="#1B3764"/>
<path d="M28.7437 30.1515C28.6982 30.7421 28.6629 31.3125 28.6478 31.8628C28.6276 32.413 28.6225 32.837 28.6225 33.1298C28.6225 33.3772 28.6276 33.6144 28.6377 33.8366C28.6478 34.0637 28.6629 34.2505 28.673 34.4019H28.2692C28.1278 33.4226 27.8906 32.6503 27.5624 32.0899C27.2293 31.5296 26.8456 31.1308 26.4014 30.9036C25.9572 30.6714 25.4927 30.5604 25.0081 30.5604H24.7759C24.468 30.5604 24.2408 30.5856 24.0843 30.6411C23.9329 30.6916 23.8269 30.7976 23.7764 30.9491C23.7259 31.1005 23.6956 31.3428 23.6956 31.676V41.1764C23.6956 41.4944 23.7209 41.7367 23.7764 41.8932C23.8319 42.0548 23.9329 42.1608 24.0843 42.2113C24.2358 42.2668 24.468 42.292 24.7759 42.292H25.3615C25.7502 42.292 26.1641 42.1658 26.5932 41.9134C27.0223 41.661 27.4211 41.2269 27.7896 40.611C28.1581 39.9952 28.4357 39.1572 28.6225 38.0921H29.0314C28.9961 38.5161 28.9809 39.0613 28.9809 39.7226C28.9809 40.0204 28.986 40.4394 28.9961 40.9896C29.0062 41.5399 29.0415 42.1103 29.1021 42.7009C28.5014 42.6757 27.8199 42.6605 27.0627 42.6555C26.3055 42.6504 25.6341 42.6454 25.0435 42.6454C24.6194 42.6454 24.049 42.6454 23.3322 42.6454C22.6154 42.6454 21.8632 42.6504 21.0656 42.6555C20.268 42.6605 19.526 42.6757 18.8394 42.7009V42.3476C19.2079 42.3223 19.4755 42.2769 19.6572 42.2062C19.8339 42.1355 19.95 41.9942 20.0106 41.7822C20.0711 41.5702 20.1014 41.2521 20.1014 40.8231V32.0294C20.1014 31.5902 20.0711 31.2722 20.0106 31.0652C19.95 30.8582 19.8288 30.7169 19.6471 30.6411C19.4654 30.5654 19.1928 30.52 18.8394 30.5099V30.1565C19.526 30.1666 20.268 30.1818 21.0656 30.1919C21.8632 30.202 22.6204 30.2121 23.3322 30.2121C24.049 30.2121 24.6144 30.2121 25.0435 30.2121C25.5887 30.2121 26.2045 30.207 26.8961 30.202C27.5826 30.1919 28.2035 30.1767 28.7437 30.1515ZM26.1742 36.2142V36.5676H23.1605V36.2142H26.1742ZM26.6891 33.8719C26.6437 34.5433 26.6185 35.0582 26.6285 35.4115C26.6336 35.7649 26.6386 36.093 26.6386 36.3858C26.6386 36.6837 26.6437 37.0067 26.6588 37.3601C26.6689 37.7135 26.6992 38.2284 26.7497 38.8997H26.3408C26.2701 38.4606 26.1237 38.0668 25.9067 37.7135C25.6896 37.3601 25.4069 37.0774 25.0637 36.8704C24.7204 36.6635 24.3266 36.5625 23.8774 36.5625V36.2091C24.3266 36.2091 24.7153 36.0829 25.0485 35.8356C25.3766 35.5882 25.6492 35.2853 25.8612 34.9219C26.0733 34.5635 26.2146 34.2101 26.2853 33.8668H26.6891V33.8719Z" fill="#1B3764"/>
<path d="M39.1477 29.9043C39.9756 29.9043 40.652 30.0154 41.1871 30.2425C41.7171 30.4646 42.1866 30.7372 42.5854 31.0553C42.7167 31.1613 42.8328 31.2168 42.9388 31.2168C43.1609 31.2168 43.3123 30.8634 43.383 30.1517H43.7919C43.7667 30.6262 43.7515 31.2016 43.7364 31.8781C43.7263 32.5596 43.7162 33.4581 43.7162 34.5788H43.3123C43.2316 33.7257 43.0852 33.0189 42.8782 32.4435C42.6712 31.873 42.2724 31.3834 41.6818 30.9795C41.4345 30.8129 41.1417 30.6867 40.8135 30.5908C40.4804 30.4949 40.1624 30.4495 39.8544 30.4495C39.1679 30.4495 38.6025 30.6363 38.1532 31.0098C37.704 31.3834 37.3455 31.868 37.083 32.4637C36.8155 33.0593 36.6287 33.7105 36.5177 34.4122C36.4016 35.1189 36.346 35.8004 36.346 36.4617C36.346 38.5869 36.6035 40.1417 37.1234 41.121C37.6434 42.1004 38.335 42.59 39.1982 42.59C39.385 42.59 39.5515 42.5698 39.6929 42.5345C39.8342 42.4992 39.9604 42.4487 40.0664 42.373C40.1977 42.2771 40.2886 42.1609 40.3491 42.0196C40.4097 41.8783 40.44 41.7016 40.44 41.4896V39.7177C40.44 39.1372 40.3946 38.7081 40.3087 38.4254C40.2179 38.1427 40.0462 37.9458 39.7837 37.8398C39.5212 37.7338 39.1477 37.6732 38.6479 37.6631V37.3098C38.9205 37.3199 39.2487 37.33 39.6424 37.335C40.0311 37.3401 40.44 37.3451 40.864 37.3552C41.2881 37.3603 41.6818 37.3653 42.0352 37.3653C42.6006 37.3653 43.1256 37.3603 43.6051 37.3451C44.0847 37.335 44.4683 37.3199 44.7662 37.3098V37.6631C44.4734 37.6884 44.2765 37.7792 44.1806 37.9458C44.0847 38.1124 44.0392 38.5264 44.0392 39.1876V42.696H43.6859C43.6758 42.4941 43.6253 42.277 43.5445 42.0398C43.4638 41.8025 43.3275 41.6864 43.1356 41.6864C43.0397 41.6864 42.9085 41.7117 42.7369 41.7571C42.5652 41.8025 42.2977 41.9186 41.9292 42.0953C41.4698 42.3174 40.9801 42.5194 40.4652 42.691C39.9503 42.8626 39.4405 42.9484 38.9306 42.9484C36.7095 42.9484 35.0436 42.3831 33.9331 41.2573C32.8225 40.1316 32.2672 38.5566 32.2672 36.5324C32.2672 35.2098 32.56 34.0487 33.1456 33.0593C33.7311 32.0649 34.5388 31.2925 35.5737 30.7372C36.6085 30.1819 37.7999 29.9043 39.1477 29.9043Z" fill="#1B3764"/>
<path d="M53.6457 30.1515L57.9365 41.2117C58.1031 41.6156 58.2798 41.8983 58.4666 42.0699C58.6533 42.2416 58.825 42.3324 58.9815 42.3425V42.6959C58.5574 42.6706 58.0577 42.6555 57.4923 42.6504C56.9269 42.6454 56.3464 42.6403 55.7558 42.6403C55.155 42.6403 54.5846 42.6454 54.0546 42.6504C53.5245 42.6555 53.0954 42.6706 52.7774 42.6959V42.3425C53.3781 42.3173 53.7618 42.2163 53.9183 42.0346C54.0798 41.8529 54.0394 41.4591 53.8022 40.8584L50.9652 33.0087L51.3185 32.3878L48.8753 38.7483C48.4866 39.763 48.2947 40.5252 48.2998 41.0351C48.3048 41.5449 48.4563 41.8831 48.7541 42.0548C49.0469 42.2264 49.4356 42.3223 49.9051 42.3476V42.7009C49.4659 42.6757 49.0772 42.6605 48.7289 42.6555C48.3806 42.6504 47.9969 42.6454 47.588 42.6454C47.3659 42.6454 47.1236 42.6504 46.8712 42.6555C46.6188 42.6605 46.4017 42.6757 46.2251 42.7009V42.3476C46.4976 42.3021 46.7652 42.1254 47.0327 41.8226C47.3003 41.5197 47.5729 41.0048 47.8556 40.2728L51.788 30.1515C52.0707 30.1767 52.3837 30.1868 52.7168 30.1868C53.05 30.1868 53.363 30.1767 53.6457 30.1515ZM54.2666 37.5974V37.9507H48.9863L49.163 37.5974H54.2666Z" fill="#1B3764"/>
<path d="M72.8182 30.1515V30.5049C72.4648 30.5755 72.1973 30.7017 72.0105 30.8784C71.8288 31.0551 71.7076 31.3327 71.647 31.7012C71.5865 32.0748 71.5562 32.5947 71.5562 33.2712V42.7009C71.3795 42.6757 71.1877 42.6656 70.9807 42.6656C70.7737 42.6656 70.5516 42.6757 70.3144 42.7009L62.4646 34.1243V39.2279C62.4646 40.0204 62.4949 40.6262 62.5606 41.0452C62.6262 41.4642 62.7827 41.767 63.0401 41.9488C63.2925 42.1305 63.6964 42.2668 64.2517 42.3476V42.7009C64.0144 42.6757 63.7065 42.6605 63.3279 42.6555C62.9493 42.6504 62.5959 42.6454 62.2627 42.6454C62.0002 42.6454 61.7377 42.6504 61.4651 42.6555C61.1925 42.6605 60.9704 42.6757 60.7937 42.7009V42.3476C61.1623 42.2668 61.4298 42.1355 61.6065 41.969C61.7832 41.7973 61.8993 41.5247 61.9598 41.1461C62.0204 40.7675 62.0507 40.2476 62.0507 39.5863V32.0294C62.0507 31.5902 62.0204 31.2722 61.9598 31.0652C61.8993 30.8582 61.7781 30.7169 61.5964 30.6411C61.4147 30.5654 61.1421 30.52 60.7887 30.5099V30.1565C60.9654 30.1666 61.1925 30.1818 61.4601 30.1919C61.7327 30.202 61.9952 30.2121 62.2577 30.2121C62.5505 30.2121 62.8433 30.207 63.1259 30.1919C63.4086 30.1818 63.661 30.1666 63.8882 30.1565L71.1372 37.8144V33.6245C71.1372 32.832 71.1069 32.2262 71.0413 31.8072C70.9756 31.3883 70.8192 31.0854 70.5718 30.8936C70.3245 30.7068 69.9156 30.5755 69.3502 30.5049V30.1515C69.5874 30.1616 69.8954 30.1767 70.274 30.1868C70.6526 30.1969 71.0059 30.207 71.3391 30.207C71.6117 30.207 71.8792 30.202 72.1468 30.1868C72.4194 30.1767 72.6415 30.1616 72.8182 30.1515Z" fill="#1B3764"/>
<path d="M116.999 30.1515C117.342 30.1616 117.791 30.1767 118.357 30.1868C118.917 30.1969 119.482 30.207 120.048 30.207C120.638 30.207 121.204 30.202 121.749 30.1868C122.294 30.1767 122.678 30.1666 122.9 30.1666C124.52 30.1666 125.722 30.4291 126.514 30.944C127.307 31.464 127.7 32.1303 127.7 32.9481C127.7 33.362 127.554 33.7911 127.256 34.2354C126.963 34.6796 126.514 35.0683 125.908 35.4065C125.308 35.7447 124.54 35.9719 123.607 36.088V36.1233C124.823 36.1839 125.797 36.3707 126.529 36.6887C127.261 37.0067 127.791 37.3954 128.125 37.8498C128.458 38.3041 128.619 38.7735 128.619 39.2582C128.619 40.4394 128.145 41.3077 127.201 41.8629C126.257 42.4182 124.954 42.6959 123.304 42.6959C123.021 42.6959 122.602 42.6858 122.052 42.6706C121.501 42.6504 120.845 42.6454 120.078 42.6454C119.487 42.6454 118.912 42.6504 118.352 42.6555C117.791 42.6605 117.337 42.6757 116.994 42.7009V42.3476C117.357 42.3223 117.63 42.2769 117.806 42.2062C117.983 42.1355 118.099 41.9942 118.16 41.7822C118.22 41.5702 118.251 41.2521 118.251 40.8231V32.0294C118.251 31.5902 118.22 31.2722 118.16 31.0652C118.099 30.8582 117.978 30.7169 117.796 30.6411C117.615 30.5654 117.347 30.52 116.989 30.5099V30.1515H116.999ZM122.814 30.5049C122.41 30.5049 122.153 30.6058 122.037 30.8077C121.92 31.0097 121.86 31.4185 121.86 32.0294V40.818C121.86 41.4339 121.936 41.8327 122.082 42.0144C122.228 42.1961 122.541 42.287 123.011 42.287C123.672 42.287 124.152 42.0194 124.455 41.4793C124.757 40.9442 124.909 40.1769 124.909 39.1824C124.909 38.2738 124.692 37.5721 124.263 37.0724C123.834 36.5776 123.112 36.3303 122.107 36.3303H120.815V36.0274H122.339C122.799 36.0274 123.157 35.8962 123.405 35.6286C123.652 35.3611 123.824 35.0077 123.92 34.5635C124.015 34.1192 124.061 33.6447 124.061 33.1349C124.061 32.2616 123.965 31.6003 123.778 31.1611C123.581 30.727 123.263 30.5049 122.814 30.5049Z" fill="#1B3764"/>
<path d="M138.089 29.9043C139.422 29.9043 140.593 30.1567 141.598 30.6666C142.602 31.1764 143.38 31.9033 143.935 32.8574C144.49 33.8064 144.768 34.9624 144.768 36.3204C144.768 37.6429 144.485 38.804 143.92 39.7934C143.354 40.7879 142.562 41.5602 141.552 42.1155C140.543 42.6708 139.382 42.9484 138.069 42.9484C136.736 42.9484 135.565 42.696 134.561 42.1862C133.556 41.6763 132.779 40.9444 132.224 39.9903C131.668 39.0312 131.391 37.8802 131.391 36.5324C131.391 35.2098 131.678 34.0487 132.249 33.0593C132.819 32.0649 133.612 31.2925 134.616 30.7372C135.621 30.1819 136.777 29.9043 138.089 29.9043ZM138.019 30.2223C137.428 30.2223 136.913 30.4899 136.479 31.0199C136.04 31.55 135.707 32.2819 135.469 33.2158C135.232 34.1497 135.116 35.23 135.116 36.4567C135.116 37.7086 135.252 38.799 135.525 39.7278C135.798 40.6566 136.161 41.3684 136.625 41.8732C137.085 42.378 137.595 42.6254 138.15 42.6254C138.741 42.6254 139.255 42.3578 139.69 41.8278C140.129 41.2977 140.462 40.5607 140.699 39.6218C140.936 38.6828 141.053 37.6026 141.053 36.386C141.053 35.124 140.916 34.0285 140.644 33.1098C140.371 32.186 140.008 31.4742 139.543 30.9745C139.084 30.4747 138.574 30.2223 138.019 30.2223Z" fill="#1B3764"/>
<path d="M154.521 29.9043C155.853 29.9043 157.025 30.1567 158.029 30.6666C159.034 31.1764 159.811 31.9033 160.366 32.8574C160.922 33.8064 161.199 34.9624 161.199 36.3204C161.199 37.6429 160.917 38.804 160.351 39.7934C159.786 40.7879 158.993 41.5602 157.984 42.1155C156.974 42.6708 155.813 42.9484 154.5 42.9484C153.168 42.9484 151.997 42.696 150.992 42.1862C149.988 41.6763 149.21 40.9444 148.655 39.9903C148.1 39.0312 147.822 37.8802 147.822 36.5324C147.822 35.2098 148.11 34.0487 148.68 33.0593C149.251 32.0649 150.043 31.2925 151.048 30.7372C152.047 30.1819 153.208 29.9043 154.521 29.9043ZM154.445 30.2223C153.854 30.2223 153.339 30.4899 152.905 31.0199C152.466 31.55 152.133 32.2819 151.896 33.2158C151.658 34.1497 151.542 35.23 151.542 36.4567C151.542 37.7086 151.679 38.799 151.951 39.7278C152.224 40.6566 152.587 41.3684 153.052 41.8732C153.511 42.378 154.021 42.6254 154.576 42.6254C155.167 42.6254 155.682 42.3578 156.116 41.8278C156.555 41.2977 156.888 40.5607 157.125 39.6218C157.363 38.6828 157.479 37.6026 157.479 36.386C157.479 35.124 157.343 34.0285 157.07 33.1098C156.797 32.186 156.434 31.4742 155.969 30.9745C155.51 30.4747 155.005 30.2223 154.445 30.2223Z" fill="#1B3764"/>
<path d="M170.079 30.1515V30.5049C169.725 30.515 169.458 30.5604 169.271 30.6361C169.089 30.7119 168.968 30.8532 168.908 31.0602C168.847 31.2672 168.817 31.5902 168.817 32.0244V40.813C168.817 41.237 168.847 41.5551 168.913 41.7721C168.978 41.9841 169.099 42.1255 169.276 42.1962C169.453 42.2668 169.72 42.3123 170.074 42.3375V42.6909C169.731 42.6656 169.291 42.6505 168.751 42.6454C168.211 42.6404 167.666 42.6353 167.111 42.6353C166.475 42.6353 165.874 42.6404 165.313 42.6454C164.753 42.6505 164.299 42.6656 163.956 42.6909V42.3375C164.319 42.3123 164.592 42.2668 164.768 42.1962C164.945 42.1255 165.061 41.9841 165.122 41.7721C165.182 41.5601 165.213 41.2421 165.213 40.813V32.0294C165.213 31.5902 165.182 31.2722 165.122 31.0652C165.061 30.8583 164.94 30.7169 164.758 30.6412C164.576 30.5655 164.309 30.52 163.951 30.5099V30.1566C164.294 30.1667 164.743 30.1818 165.308 30.1919C165.869 30.202 166.469 30.2121 167.106 30.2121C167.661 30.2121 168.206 30.2071 168.746 30.1919C169.296 30.1768 169.736 30.1616 170.079 30.1515ZM176.566 30.1515V30.4898C176.162 30.5958 175.717 30.7926 175.228 31.0753C174.738 31.358 174.213 31.8123 173.658 32.4383L170.397 36.1436L171.831 34.2657L176.03 41.2673C176.182 41.5147 176.338 41.7216 176.49 41.8882C176.641 42.0548 176.848 42.2063 177.111 42.3476V42.701C176.616 42.6757 176.086 42.6606 175.526 42.6555C174.965 42.6505 174.43 42.6454 173.92 42.6454C173.648 42.6454 173.31 42.6505 172.911 42.6555C172.512 42.6606 172.002 42.6757 171.386 42.701V42.3476C171.942 42.3224 172.265 42.2567 172.35 42.1507C172.436 42.0447 172.396 41.8428 172.219 41.55L169.65 37.2087C169.534 36.9967 169.428 36.8351 169.332 36.7291C169.236 36.6231 169.145 36.5474 169.059 36.4969C168.968 36.4515 168.857 36.4212 168.716 36.4061V36.0325C169.236 36.0073 169.725 35.8356 170.185 35.5075C170.644 35.1844 171.199 34.6544 171.851 33.9224L172.451 33.251C172.946 32.6957 173.209 32.2162 173.239 31.8073C173.269 31.3984 173.143 31.0804 172.865 30.8482C172.588 30.616 172.224 30.4948 171.775 30.4847V30.1465C172.27 30.1566 172.729 30.1717 173.148 30.1818C173.567 30.1919 174.107 30.202 174.768 30.202C175.495 30.2071 176.091 30.1869 176.566 30.1515Z" fill="#1B3764"/>
<path d="M183.956 29.9043C184.723 29.9043 185.319 29.98 185.748 30.1365C186.172 30.2879 186.535 30.4495 186.828 30.6161C186.97 30.6968 187.086 30.7625 187.171 30.8028C187.257 30.8432 187.343 30.8634 187.429 30.8634C187.616 30.8634 187.747 30.606 187.818 30.086H188.227C188.216 30.3334 188.201 30.6211 188.181 30.9543C188.161 31.2875 188.151 31.7216 188.146 32.2668C188.141 32.812 188.136 33.5237 188.136 34.4122H187.727C187.681 33.761 187.53 33.13 187.272 32.5141C187.02 31.8983 186.672 31.3935 186.228 30.9896C185.783 30.5858 185.258 30.3889 184.642 30.3889C184.122 30.3889 183.693 30.5303 183.35 30.8129C183.007 31.0956 182.835 31.5045 182.835 32.0346C182.835 32.4738 182.941 32.8473 183.153 33.1603C183.365 33.4733 183.698 33.8014 184.153 34.1447C184.607 34.4879 185.208 34.917 185.95 35.437C186.48 35.8055 186.965 36.1689 187.394 36.5374C187.823 36.9059 188.171 37.3148 188.428 37.7792C188.686 38.2437 188.817 38.7939 188.817 39.4451C188.817 40.2376 188.595 40.8939 188.151 41.4138C187.707 41.9338 187.121 42.3225 186.389 42.5749C185.657 42.8273 184.859 42.9535 183.996 42.9535C183.194 42.9535 182.553 42.8828 182.073 42.7415C181.593 42.6001 181.19 42.4537 180.861 42.2972C180.599 42.1307 180.402 42.0499 180.261 42.0499C180.074 42.0499 179.943 42.3073 179.872 42.8273H179.463C179.488 42.5194 179.504 42.1609 179.509 41.7571C179.514 41.3533 179.519 40.8232 179.529 40.172C179.534 39.5208 179.539 38.698 179.539 37.6884H179.948C179.993 38.5163 180.129 39.2886 180.347 40.0105C180.564 40.7323 180.902 41.3129 181.356 41.7571C181.81 42.2013 182.416 42.4234 183.173 42.4234C183.825 42.4234 184.34 42.272 184.723 41.9641C185.107 41.6561 185.299 41.2321 185.299 40.6869C185.299 39.9549 185.056 39.3441 184.572 38.8545C184.087 38.3648 183.466 37.8651 182.709 37.3552C182.154 36.9766 181.634 36.598 181.149 36.2194C180.665 35.8408 180.276 35.4168 179.988 34.9422C179.7 34.4677 179.554 33.9074 179.554 33.2612C179.554 32.4838 179.761 31.8478 180.175 31.3581C180.589 30.8685 181.134 30.505 181.805 30.2678C182.477 30.0305 183.199 29.9043 183.956 29.9043Z" fill="#1B3764"/>
<path d="M41.0205 4.53293V3.4375H43.7616V4.53293H41.0205Z" fill="#1B3764"/>
<path d="M50.7281 6.46684V0.0507812H53.449C53.7417 0.0507812 54.0143 0.111358 54.2617 0.232511C54.509 0.353664 54.7261 0.515201 54.9078 0.722171C55.0896 0.929141 55.236 1.1563 55.3369 1.4087C55.4379 1.66111 55.4884 1.91856 55.4884 2.1861C55.4884 2.54956 55.4025 2.89283 55.236 3.2159C55.0694 3.53898 54.8372 3.80653 54.5393 4.01349C54.2415 4.22046 53.8932 4.32143 53.4893 4.32143H51.9699V6.47189H50.7281V6.46684ZM51.9749 3.22095H53.4187C53.5701 3.22095 53.7064 3.18057 53.8276 3.09475C53.9487 3.00893 54.0446 2.88778 54.1153 2.72624C54.186 2.56471 54.2264 2.38298 54.2264 2.18106C54.2264 1.95894 54.186 1.76712 54.1052 1.61063C54.0244 1.45414 53.9184 1.33803 53.7872 1.25726C53.6559 1.17649 53.5196 1.14116 53.3682 1.14116H51.9749V3.22095Z" fill="#1B3764"/>
<path d="M62.6262 5.37647V6.47189H58.1687V0.0507812H62.5454V1.14621H59.4156V2.69091H62.1163V3.70556H59.4156V5.37647H62.6262Z" fill="#1B3764"/>
<path d="M65.4075 6.46684V0.0507812H68.2445C68.5423 0.0507812 68.8099 0.111358 69.0623 0.232511C69.3096 0.353664 69.5267 0.515201 69.7135 0.722171C69.8952 0.929141 70.0366 1.1563 70.1375 1.4087C70.2385 1.66111 70.289 1.91856 70.289 2.1861C70.289 2.4587 70.2435 2.71615 70.1476 2.96855C70.0517 3.22095 69.9204 3.43802 69.7438 3.6248C69.5671 3.81157 69.3652 3.95797 69.1279 4.05893L70.5918 6.47189H69.2188L67.9012 4.32143H66.6544V6.47189H65.4075V6.46684ZM66.6544 3.22095H68.2193C68.3757 3.22095 68.512 3.17552 68.6332 3.07961C68.7544 2.98874 68.8503 2.86254 68.9209 2.70605C68.9916 2.54956 69.032 2.37288 69.032 2.18106C69.032 1.97409 68.9916 1.7974 68.9058 1.64091C68.82 1.48947 68.714 1.36327 68.5827 1.27241C68.4515 1.18154 68.3152 1.13611 68.1637 1.13611H66.6544V3.22095Z" fill="#1B3764"/>
<path d="M73.2271 6.46684V0.0507812H77.5381V1.14621H74.4739V2.80196H77.0232V3.81662H74.4739V6.47189H73.2271V6.46684Z" fill="#1B3764"/>
<path d="M84.6811 5.37647V6.47189H80.2237V0.0507812H84.6003V1.14621H81.4705V2.69091H84.1712V3.70556H81.4705V5.37647H84.6811Z" fill="#1B3764"/>
<path d="M86.9577 3.20546C86.9577 2.81172 87.0284 2.42807 87.1698 2.05451C87.3111 1.67591 87.5181 1.33264 87.7907 1.02471C88.0633 0.716779 88.3914 0.469425 88.7851 0.282647C89.1789 0.100918 89.6231 0.00500488 90.1229 0.00500488C90.7135 0.00500488 91.2234 0.136254 91.6575 0.393704C92.0866 0.651154 92.4096 0.989373 92.6217 1.40836L91.6625 2.06965C91.5515 1.82735 91.4101 1.63552 91.2385 1.49418C91.0618 1.35283 90.875 1.25187 90.6782 1.19634C90.4813 1.14081 90.2844 1.11053 90.0926 1.11053C89.7796 1.11053 89.507 1.17615 89.2748 1.30235C89.0426 1.42855 88.8508 1.59514 88.6943 1.80211C88.5378 2.00908 88.4217 2.23624 88.346 2.48864C88.2702 2.74104 88.2349 2.99345 88.2349 3.24585C88.2349 3.52854 88.2803 3.80113 88.3712 4.06363C88.4621 4.32613 88.5883 4.55834 88.7549 4.76026C88.9214 4.96218 89.1183 5.12372 89.3505 5.23983C89.5827 5.35593 89.8351 5.41651 90.1128 5.41651C90.3096 5.41651 90.5116 5.38117 90.7185 5.31555C90.9255 5.24992 91.1123 5.14391 91.289 4.99752C91.4657 4.85113 91.5969 4.66435 91.6979 4.43719L92.7176 5.02276C92.5914 5.34079 92.3844 5.61338 92.0967 5.83549C91.8089 6.05761 91.4909 6.22924 91.1325 6.3403C90.7791 6.4564 90.4258 6.51193 90.0774 6.51193C89.6181 6.51193 89.1991 6.41602 88.8205 6.22924C88.4419 6.03742 88.1138 5.78501 87.8412 5.47204C87.5686 5.15401 87.3515 4.80065 87.2001 4.4069C87.0335 4.0081 86.9577 3.60931 86.9577 3.20546Z" fill="#1B3764"/>
<path d="M100.153 1.14621H98.0987V6.46684H96.862V1.14621H94.8074V0.0507812H100.148V1.14621H100.153Z" fill="#1B3764"/>
<path d="M110.295 1.73148C110.254 1.69109 110.174 1.63052 110.063 1.55985C109.952 1.48917 109.815 1.4185 109.654 1.35288C109.492 1.28725 109.321 1.22667 109.134 1.17619C108.947 1.12571 108.755 1.10047 108.563 1.10047C108.225 1.10047 107.973 1.16105 107.801 1.28725C107.629 1.41345 107.544 1.59013 107.544 1.8173C107.544 1.99398 107.599 2.13027 107.705 2.23124C107.816 2.3322 107.978 2.41801 108.195 2.49373C108.412 2.56441 108.685 2.64517 109.008 2.72594C109.432 2.8269 109.795 2.95311 110.108 3.0995C110.416 3.24589 110.658 3.43772 110.82 3.67498C110.986 3.91223 111.067 4.22521 111.067 4.61391C111.067 4.95718 111.002 5.24996 110.875 5.49227C110.749 5.73458 110.572 5.93145 110.35 6.08289C110.128 6.23433 109.876 6.34034 109.593 6.41101C109.31 6.48169 109.008 6.51702 108.69 6.51702C108.372 6.51702 108.048 6.48169 107.73 6.41606C107.412 6.35044 107.104 6.25453 106.807 6.13337C106.509 6.01222 106.241 5.86078 105.994 5.6841L106.544 4.60886C106.6 4.66439 106.696 4.73506 106.832 4.82088C106.968 4.9067 107.14 4.99756 107.337 5.08338C107.534 5.1692 107.751 5.24492 107.988 5.30549C108.225 5.36607 108.462 5.39636 108.7 5.39636C109.038 5.39636 109.295 5.34083 109.467 5.22472C109.644 5.11367 109.729 4.95213 109.729 4.74011C109.729 4.54829 109.659 4.39685 109.522 4.29084C109.386 4.18483 109.189 4.08891 108.942 4.00815C108.695 3.92738 108.402 3.83651 108.064 3.7406C107.66 3.6245 107.322 3.49829 107.049 3.35695C106.776 3.2156 106.574 3.03892 106.443 2.82186C106.312 2.60479 106.246 2.33724 106.246 2.00912C106.246 1.56994 106.352 1.20143 106.559 0.908648C106.766 0.610813 107.049 0.388699 107.402 0.23221C107.756 0.0807687 108.154 0 108.589 0C108.891 0 109.174 0.0353363 109.442 0.100961C109.709 0.166585 109.962 0.252402 110.199 0.363459C110.436 0.474516 110.643 0.590621 110.83 0.716822L110.295 1.73148Z" fill="#1B3764"/>
<path d="M118.619 1.14621H116.565V6.46684H115.328V1.14621H113.273V0.0507812H118.614V1.14621H118.619Z" fill="#1B3764"/>
<path d="M123.819 6.51198C123.349 6.51198 122.92 6.42111 122.541 6.23938C122.158 6.05765 121.83 5.81535 121.557 5.50237C121.284 5.19444 121.072 4.84107 120.921 4.45237C120.77 4.06367 120.694 3.66488 120.694 3.25599C120.694 2.8269 120.775 2.41801 120.931 2.02931C121.093 1.64061 121.31 1.2923 121.592 0.989416C121.875 0.686534 122.203 0.444228 122.587 0.267546C122.97 0.0908648 123.389 0 123.849 0C124.313 0 124.737 0.0959128 125.121 0.28269C125.505 0.469468 125.833 0.72187 126.1 1.03485C126.373 1.34783 126.58 1.69614 126.731 2.08484C126.883 2.47354 126.958 2.86729 126.958 3.27618C126.958 3.70022 126.878 4.10406 126.721 4.49276C126.565 4.88146 126.348 5.22977 126.065 5.53266C125.787 5.83554 125.454 6.07784 125.07 6.24948C124.687 6.42616 124.268 6.51198 123.819 6.51198ZM121.956 3.26104C121.956 3.53868 121.996 3.80622 122.082 4.06367C122.168 4.32113 122.289 4.55333 122.451 4.75526C122.612 4.95718 122.804 5.11872 123.036 5.23482C123.268 5.35093 123.531 5.4115 123.829 5.4115C124.132 5.4115 124.399 5.35093 124.631 5.22472C124.869 5.10357 125.06 4.93699 125.217 4.72497C125.373 4.518 125.494 4.28579 125.575 4.02834C125.656 3.77089 125.696 3.51344 125.696 3.25599C125.696 2.97835 125.651 2.7108 125.565 2.4584C125.479 2.20095 125.353 1.97378 125.197 1.77186C125.04 1.56994 124.843 1.4084 124.611 1.2923C124.379 1.17619 124.116 1.11562 123.829 1.11562C123.521 1.11562 123.253 1.17619 123.021 1.3024C122.789 1.42355 122.597 1.59013 122.435 1.7971C122.279 2.00407 122.158 2.23124 122.077 2.48364C121.996 2.73604 121.956 2.99349 121.956 3.26104Z" fill="#1B3764"/>
<path d="M129.72 6.46684V0.0507812H132.557C132.855 0.0507812 133.122 0.111358 133.375 0.232511C133.622 0.353664 133.839 0.515201 134.026 0.722171C134.207 0.929141 134.349 1.1563 134.45 1.4087C134.551 1.66111 134.601 1.91856 134.601 2.1861C134.601 2.4587 134.556 2.71615 134.46 2.96855C134.364 3.22095 134.233 3.43802 134.056 3.6248C133.879 3.81157 133.677 3.95797 133.44 4.05893L134.904 6.47189H133.531L132.213 4.32143H130.967V6.47189H129.72V6.46684ZM130.967 3.22095H132.532C132.688 3.22095 132.824 3.17552 132.945 3.07961C133.067 2.98874 133.163 2.86254 133.233 2.70605C133.304 2.54956 133.344 2.37288 133.344 2.18106C133.344 1.97409 133.304 1.7974 133.218 1.64091C133.132 1.48947 133.026 1.36327 132.895 1.27241C132.764 1.18154 132.627 1.13611 132.476 1.13611H130.967V3.22095Z" fill="#1B3764"/>
<path d="M141.997 5.37647V6.47189H137.539V0.0507812H141.916V1.14621H138.791V2.69091H141.492V3.70556H138.791V5.37647H141.997Z" fill="#1B3764"/>
<path d="M148.609 4.53293V3.4375H151.35V4.53293H148.609Z" fill="#1B3764"/>
<path d="M97.5686 28.6071C97.614 28.5365 97.6746 28.4708 97.7402 28.4254L97.7453 28.4102C98.5378 27.6783 99.4717 27.1937 100.522 26.6788C101.602 26.1538 102.647 25.6187 103.616 24.8312C105.272 23.4884 106.731 21.5802 108.215 18.8341C108.932 17.5014 109.568 16.1385 110.158 14.8613C110.224 14.72 110.194 14.5635 110.078 14.4877C109.967 14.412 109.729 14.4019 109.598 14.5736C108.311 16.2748 106.544 17.35 104.823 18.4C104.404 18.6574 103.97 18.9199 103.551 19.1875C102.647 19.768 101.486 20.5706 100.507 21.6307C99.502 22.7211 98.6842 24.1043 97.9371 25.9771C97.6746 26.6384 97.4172 27.3401 97.1799 28.0518C97.1648 28.0771 97.1496 28.1023 97.1345 28.1276C97.1294 28.1326 97.1294 28.1326 97.1244 28.1377C97.0789 28.1831 97.0487 28.2437 97.0335 28.3042C96.5237 29.1977 96.0693 30.1215 95.6504 31.0605C95.6554 30.9848 95.6655 30.904 95.6706 30.8283C95.8371 28.8494 95.7362 27.2997 95.3576 25.9519C94.9891 24.6394 94.3631 23.5036 93.8583 22.6555C93.6261 22.2617 93.3737 21.873 93.1314 21.4843C92.147 19.9346 91.1324 18.3293 90.779 16.3252C90.7437 16.1233 90.5367 16.0425 90.4054 16.0779C90.2742 16.1132 90.1833 16.2394 90.1783 16.3959C90.1328 17.774 90.0874 19.2481 90.1278 20.717C90.2035 23.7509 90.6175 26.0074 91.4302 27.8146C91.9047 28.8696 92.5458 29.7278 93.2222 30.5809C93.8785 31.4138 94.454 32.1862 94.8023 33.1352L94.7922 33.2109C94.4439 34.1499 94.1309 35.0989 93.8432 36.053C93.5706 36.9616 93.3182 37.8804 93.0809 38.7991C93.0506 38.6325 93.0203 38.4609 92.99 38.2994C92.6821 36.6991 92.2126 35.4876 91.511 34.4881C90.8295 33.5189 89.9208 32.7415 89.2091 32.171C88.8809 31.9085 88.5326 31.646 88.1944 31.3835C86.8314 30.3487 85.423 29.2785 84.585 27.7591C84.5043 27.6076 84.2872 27.5874 84.1661 27.6379C84.1004 27.6631 84.05 27.7136 84.0197 27.7792C83.9894 27.8398 83.9843 27.9105 83.9995 27.9761C84.2822 29.0766 84.5901 30.2528 84.9788 31.4088C85.7814 33.8016 86.7406 35.5078 87.9874 36.7799C88.7143 37.522 89.5725 38.0722 90.4559 38.6224C91.3191 39.1525 92.0814 39.6522 92.6619 40.3337L92.672 40.4448C92.3136 41.9441 91.9754 43.4484 91.6271 44.9527C91.4504 45.7149 91.2737 46.4772 91.0869 47.2344C91.0819 47.2193 91.0819 47.2041 91.0768 47.189C90.8345 45.8361 90.4559 44.8164 89.8804 43.9835C89.3252 43.1707 88.5781 42.5195 87.9975 42.045C87.73 41.8279 87.4473 41.6109 87.1747 41.3989L87.1646 41.3888C86.049 40.5306 84.898 39.6371 84.2216 38.37C84.1459 38.2287 83.954 38.2186 83.8531 38.264C83.737 38.3145 83.6713 38.4458 83.7016 38.572C83.9238 39.5008 84.1711 40.4852 84.4841 41.4594C85.1302 43.4686 85.9076 44.9022 86.9273 45.9673C87.523 46.5883 88.2247 47.0476 88.9567 47.5019C89.628 47.9209 90.2187 48.3147 90.6831 48.8397C90.2439 50.5106 89.7441 52.1663 89.1434 53.7918C88.6386 55.1497 88.048 56.4774 87.3716 57.7545C87.4725 58.0019 87.5735 58.2543 87.6744 58.5067C88.2651 57.4516 88.7951 56.3562 89.2595 55.2305C90.4357 52.3784 91.2434 49.395 91.9552 46.4116C92.0511 46.0077 92.147 45.5988 92.2429 45.1899C93.0809 45.1193 93.8987 45.296 94.8023 45.5231C95.7614 45.7654 96.7003 45.9774 97.71 45.9472C99.4364 45.8967 101.314 45.296 103.606 44.0541C104.717 43.4534 105.792 42.777 106.791 42.1409C106.907 42.0652 106.963 41.9188 106.928 41.7876C106.892 41.6513 106.731 41.4998 106.559 41.5554C104.903 42.1005 103.227 41.8734 101.602 41.6563C101.203 41.6008 100.794 41.5453 100.396 41.5049C99.5273 41.414 98.3813 41.3383 97.2304 41.5705C96.0492 41.8128 94.8477 42.3933 93.4494 43.3979C93.1314 43.6301 92.8033 43.8724 92.4802 44.1299C92.9446 42.1005 93.404 40.0662 93.9441 38.052L94.0249 37.9359C94.9234 37.4715 95.8674 37.2898 96.9124 37.1131C97.9876 36.9364 99.0426 36.7345 100.103 36.2751C101.92 35.4876 103.742 34.0994 105.847 31.9085C106.867 30.8485 107.826 29.7328 108.72 28.6828C108.821 28.5667 108.836 28.4052 108.765 28.2941C108.689 28.178 108.482 28.0973 108.321 28.2235C106.706 29.4703 104.873 29.965 103.096 30.4547C102.662 30.5708 102.213 30.697 101.774 30.8283C100.83 31.111 99.5979 31.5299 98.4419 32.2518C97.2556 32.9939 96.135 34.0742 94.9234 35.6441C94.7619 35.8561 94.6004 36.0732 94.4388 36.2902C95.196 33.746 96.135 31.2472 97.4071 28.9201C97.4525 28.804 97.508 28.7081 97.5686 28.6071ZM105.923 21.3783C105.161 22.4586 104.353 23.3774 103.525 24.0992C102.541 24.9574 101.466 25.5329 100.542 25.9872L100.375 26.068C99.8655 26.3153 99.3051 26.5879 98.76 26.911C99.8251 25.6187 101.133 24.6242 102.4 23.7105C102.531 23.6146 102.657 23.5237 102.788 23.4329L102.819 23.4127C103.566 22.8776 104.338 22.3223 105.07 21.7115C105.736 21.1562 106.322 20.5858 106.847 19.98C106.534 20.4747 106.231 20.9391 105.923 21.3783ZM100.729 22.3173C101.991 20.8331 103.616 19.8488 105.186 18.8896C105.741 18.5514 106.317 18.2031 106.867 17.8346C107.387 17.4863 107.851 17.1481 108.265 16.8098C107.912 17.4106 107.559 17.9608 107.2 18.4757C106.544 19.4146 105.767 20.2728 104.888 21.03C104.106 21.7064 103.258 22.3173 102.44 22.9028C101.516 23.5641 100.562 24.2507 99.6837 25.0432C99.2597 25.4269 98.8761 25.8105 98.5277 26.2043C98.9922 25.0331 99.6888 23.5338 100.729 22.3173ZM90.7235 38.0873L90.5872 38.0015C89.8249 37.5321 88.9516 36.9414 88.2247 36.1388C87.6088 35.4573 87.0535 34.6294 86.574 33.6703C86.4023 33.3321 86.2408 32.9737 86.0843 32.6001C86.4225 33.1049 86.8213 33.5946 87.2858 34.0792C87.8309 34.6547 88.4317 35.1898 89.0122 35.7097L89.3353 36.0025C90.2843 36.8556 91.2586 37.7794 91.9653 38.9001C91.5513 38.5972 91.1223 38.3297 90.7235 38.0873ZM91.5665 37.3402C90.9153 36.6032 90.1783 35.9369 89.4665 35.2958C88.8304 34.7254 88.1793 34.1398 87.5937 33.5037C86.9425 32.792 86.4023 32.0095 85.9884 31.1816C85.7764 30.7525 85.5745 30.2982 85.3826 29.8086C85.6855 30.1165 86.0237 30.4244 86.4124 30.7475C86.8466 31.1059 87.3009 31.4542 87.7451 31.7874C88.997 32.7364 90.2944 33.7208 91.1526 35.0585C91.8391 36.1287 92.1723 37.3756 92.3641 38.3599C92.1319 38.0217 91.8694 37.6835 91.5665 37.3402ZM89.204 47.0123L89.093 46.9416C88.472 46.5529 87.7552 46.0633 87.1596 45.3969C86.6598 44.8315 86.2055 44.1349 85.8168 43.3323C85.7057 43.1001 85.5997 42.8577 85.4937 42.6053C85.7461 42.9739 86.0389 43.3323 86.3721 43.6907C86.8213 44.1702 87.311 44.6195 87.7855 45.0536L88.048 45.296C88.8002 45.9875 89.5675 46.7296 90.1379 47.6281C89.8249 47.401 89.5018 47.1991 89.204 47.0123ZM89.9057 46.3762C89.3756 45.7553 88.7699 45.2051 88.1843 44.67C87.6644 44.1955 87.1293 43.7058 86.6547 43.1758C86.1247 42.5852 85.6855 41.9289 85.3524 41.2323C85.1908 40.8991 85.0444 40.5457 84.898 40.1671C85.1302 40.3993 85.3877 40.6417 85.6754 40.884C86.0288 41.1818 86.4074 41.4746 86.7658 41.7522C87.7906 42.5397 88.8506 43.3575 89.5473 44.4782C90.0824 45.3363 90.3499 46.3409 90.5014 47.1536C90.3297 46.8962 90.1278 46.6387 89.9057 46.3762ZM97.0335 42.2469C98.5681 41.8532 100.103 42.0652 101.592 42.2671C102.117 42.3378 102.662 42.4135 103.197 42.459C103.682 42.4993 104.126 42.5145 104.545 42.5044C104.045 42.7467 103.571 42.9537 103.106 43.1303C102.228 43.4635 101.304 43.6604 100.37 43.721C99.5323 43.7765 98.6893 43.7412 97.8664 43.7058C96.9427 43.6654 95.9936 43.6251 95.0345 43.7109C94.5953 43.7513 94.1814 43.8118 93.7826 43.9027C94.6458 43.2818 95.8018 42.565 97.0335 42.2469ZM97.4424 44.3267C97.5787 44.3318 97.715 44.3368 97.8513 44.3419H97.8664C98.6136 44.3722 99.3809 44.4075 100.153 44.3722C100.809 44.3419 101.425 44.2611 102.021 44.1248C101.627 44.3065 101.244 44.4681 100.87 44.6044C99.8503 44.983 98.8862 45.2101 97.9926 45.2758C96.9376 45.3515 95.9583 45.1496 95.1405 44.9476L94.9941 44.9123C94.56 44.8012 94.0855 44.6851 93.5958 44.6044C94.8932 44.2611 96.2006 44.2762 97.4424 44.3267ZM98.4268 32.9737C99.9513 31.9338 101.632 31.4744 103.263 31.0302C103.838 30.8737 104.434 30.7122 105.014 30.5254C105.545 30.3588 106.019 30.1771 106.463 29.9852C105.989 30.4446 105.534 30.8535 105.08 31.2321C104.232 31.9338 103.308 32.5244 102.334 32.9838C101.461 33.3977 100.557 33.7258 99.6787 34.0439C98.6943 34.4023 97.6746 34.7708 96.6852 35.2655C96.2258 35.4927 95.8018 35.735 95.403 35.9975C96.1501 35.0282 97.19 33.8217 98.4268 32.9737ZM99.4061 34.8112L99.8554 34.6496C100.653 34.3619 101.481 34.059 102.283 33.6955C102.98 33.3826 103.621 33.0292 104.222 32.6355C103.838 32.9939 103.465 33.327 103.091 33.635C102.112 34.4427 101.143 35.0787 100.219 35.5229C99.1234 36.0479 98.033 36.2751 97.1092 36.4316L96.9427 36.4568C96.4479 36.5376 95.9078 36.6285 95.3626 36.7648C96.66 35.8612 98.0684 35.3059 99.4061 34.8112ZM93.616 30.0711L93.515 29.9398C92.9396 29.2028 92.2833 28.2992 91.829 27.1735C91.4453 26.2194 91.1576 25.0987 90.9759 23.8418C90.9102 23.3673 90.8547 22.8675 90.8143 22.3425C90.991 23.0391 91.2283 23.7307 91.5312 24.4324C91.8845 25.2451 92.2884 26.0225 92.6872 26.7747L92.9093 27.1987C93.5706 28.4658 94.2319 29.8237 94.5751 31.3634C94.2672 30.8939 93.9239 30.4648 93.616 30.0711ZM95.0698 30.7778C94.9487 30.3134 94.7972 29.854 94.6155 29.3744C94.2167 28.3396 93.7119 27.3804 93.2273 26.4516C92.7932 25.6288 92.3489 24.7757 91.9804 23.8822C91.5715 22.8826 91.2838 21.8226 91.1324 20.7372C91.0516 20.1517 90.991 19.5408 90.9506 18.8846C91.1475 19.3238 91.3848 19.7781 91.6574 20.2577C91.9602 20.7827 92.2934 21.3077 92.6114 21.8074C93.515 23.231 94.4489 24.6999 94.873 26.5021C95.2112 27.9559 95.1708 29.5511 95.0698 30.7778Z" fill="#1B3764"/>
<path d="M52.101 64.786H53.6205L52.2322 71.3283H55.9981L55.7204 72.6711H50.425L52.101 64.786Z" fill="#1B3764"/>
<path d="M61.8184 72.7819C61.2581 72.7819 60.7937 72.6709 60.4352 72.4538C60.0768 72.2317 59.8093 71.9389 59.6427 71.5704C59.4761 71.2019 59.3853 70.793 59.3853 70.3437C59.3853 69.8743 59.4711 69.43 59.6478 69.006C59.8194 68.582 60.0667 68.2034 60.3848 67.8752C60.7028 67.5471 61.0814 67.2897 61.5105 67.1029C61.9446 66.9161 62.4191 66.8202 62.9391 66.8202C63.4994 66.8202 63.9638 66.9312 64.3222 67.1483C64.6807 67.3704 64.9482 67.6632 65.1148 68.0267C65.2864 68.3952 65.3722 68.8041 65.3722 69.2584C65.3722 69.7279 65.2864 70.1721 65.1097 70.5961C64.9331 71.0202 64.6907 71.3988 64.3727 71.7269C64.0547 72.055 63.6761 72.3125 63.247 72.4992C62.8129 72.6911 62.3384 72.7819 61.8184 72.7819ZM62.0405 71.5149C62.2677 71.5149 62.4898 71.4644 62.7069 71.3634C62.9189 71.2625 63.1107 71.1161 63.2773 70.9293C63.4439 70.7425 63.5751 70.5204 63.6761 70.263C63.7771 70.0105 63.8275 69.7329 63.8275 69.4351C63.8275 69.1675 63.7871 68.9303 63.7013 68.7284C63.6155 68.5264 63.4893 68.3649 63.3227 68.2538C63.1561 68.1428 62.9542 68.0872 62.717 68.0872C62.4848 68.0872 62.2677 68.1377 62.0557 68.2387C61.8437 68.3397 61.6518 68.486 61.4852 68.6728C61.3187 68.8596 61.1824 69.0868 61.0814 69.3442C60.9804 69.6017 60.93 69.8793 60.93 70.1771C60.93 70.4396 60.9703 70.6718 61.0562 70.8738C61.142 71.0757 61.2682 71.2372 61.4348 71.3483C61.6013 71.4593 61.8033 71.5149 62.0405 71.5149Z" fill="#1B3764"/>
<path d="M70.5718 72.7827C70.0973 72.7827 69.653 72.707 69.234 72.5505C68.8151 72.394 68.4819 72.1719 68.2295 71.8842L68.9716 70.9503C69.2542 71.1926 69.542 71.3794 69.8398 71.5106C70.1377 71.6419 70.4355 71.7025 70.7384 71.7025C70.9453 71.7025 71.122 71.6722 71.2735 71.6116C71.4199 71.551 71.536 71.4703 71.6167 71.3642C71.6975 71.2582 71.7379 71.1421 71.7379 71.0058C71.7379 70.8241 71.6571 70.6878 71.4956 70.602C71.334 70.5162 71.0766 70.4203 70.7283 70.3193C70.3446 70.1931 70.0266 70.077 69.7792 69.9609C69.5319 69.8498 69.3502 69.7135 69.229 69.557C69.1129 69.4006 69.0523 69.1986 69.0523 68.9614C69.0523 68.5525 69.1684 68.189 69.4006 67.8659C69.6328 67.5429 69.9509 67.2905 70.3446 67.1037C70.7384 66.9169 71.1826 66.826 71.6723 66.826C72.0963 66.826 72.4698 66.8917 72.803 67.0229C73.1362 67.1542 73.434 67.3561 73.6915 67.6287L72.904 68.5272C72.6667 68.3051 72.4396 68.1436 72.2225 68.0426C72.0054 67.9417 71.7631 67.8912 71.5057 67.8912C71.3138 67.8912 71.1422 67.9164 70.9908 67.972C70.8393 68.0275 70.7182 68.1083 70.6324 68.2143C70.5415 68.3203 70.5011 68.4515 70.5011 68.603C70.5011 68.7695 70.5718 68.8907 70.7081 68.9664C70.8444 69.0421 71.0816 69.133 71.4249 69.234C71.8388 69.3501 72.1821 69.4712 72.4446 69.6025C72.7121 69.7287 72.909 69.8801 73.0453 70.0568C73.1766 70.2335 73.2472 70.4556 73.2472 70.7231C73.2472 71.127 73.1362 71.4803 72.9141 71.7883C72.692 72.0962 72.379 72.3385 71.9802 72.5152C71.5713 72.6919 71.1018 72.7827 70.5718 72.7827Z" fill="#1B3764"/>
<path d="M85.62 64.786H86.9881L88.134 72.6711H86.559L86.3621 70.7074H83.7422L82.7073 72.6711H81.1323L85.62 64.786ZM86.2409 69.6271L85.928 66.5276L84.2974 69.6271H86.2409Z" fill="#1B3764"/>
<path d="M92.8388 66.906H94.1816L93.9494 67.9812C94.1412 67.7339 94.3633 67.5219 94.6208 67.3502C94.8782 67.1786 95.1559 67.0474 95.4537 66.9565C95.7515 66.8656 96.0645 66.8202 96.3825 66.8202C96.7208 66.8202 96.9883 66.8808 97.17 66.9969C97.3568 67.113 97.4881 67.2745 97.5638 67.4764C97.6395 67.6784 97.6799 67.9005 97.6799 68.1529C97.6799 68.3043 97.6698 68.4608 97.6446 68.6122C97.6244 68.7637 97.5941 68.9252 97.5688 69.0868L96.8015 72.6759H95.3124L95.9989 69.4603C96.0292 69.3493 96.0494 69.2483 96.0595 69.1524C96.0696 69.0565 96.0746 68.9656 96.0746 68.8798C96.0746 68.6223 96.0191 68.4356 95.903 68.3144C95.7869 68.1933 95.6354 68.1327 95.4436 68.1327C95.2669 68.1327 95.0751 68.1832 94.8681 68.2841C94.6612 68.3851 94.4643 68.5264 94.2775 68.7031C94.0907 68.8798 93.9393 69.0868 93.8131 69.3139L93.0912 72.6759H91.6021L92.8388 66.906Z" fill="#1B3764"/>
<path d="M102.688 75.1495C102.082 75.1495 101.592 75.0435 101.213 74.8314C100.84 74.6194 100.547 74.3216 100.33 73.9379L101.309 73.1504C101.456 73.423 101.673 73.6401 101.956 73.7966C102.238 73.9531 102.561 74.0288 102.92 74.0288C103.207 74.0288 103.485 73.9733 103.753 73.8572C104.02 73.7461 104.252 73.5694 104.459 73.3322C104.661 73.0949 104.803 72.792 104.873 72.4185L105.03 71.6915C104.777 72.0399 104.469 72.3125 104.101 72.4992C103.732 72.6911 103.364 72.7819 102.995 72.7819C102.587 72.7819 102.238 72.6759 101.945 72.469C101.653 72.262 101.431 71.9793 101.284 71.631C101.138 71.2827 101.062 70.8889 101.062 70.4548C101.062 69.9752 101.148 69.5108 101.325 69.0767C101.496 68.6375 101.738 68.2538 102.046 67.9156C102.354 67.5774 102.708 67.3099 103.101 67.113C103.495 66.9161 103.914 66.8202 104.348 66.8202C104.777 66.8202 105.131 66.9212 105.408 67.1231C105.686 67.325 105.893 67.5976 106.024 67.9308L106.236 66.906H107.549L106.362 72.4134C106.246 72.9839 106.009 73.4786 105.651 73.8824C105.292 74.2862 104.863 74.6043 104.353 74.8213C103.844 75.0384 103.288 75.1495 102.688 75.1495ZM103.768 71.5956C103.914 71.5956 104.061 71.5704 104.207 71.5149C104.353 71.4593 104.49 71.3887 104.626 71.2928C104.757 71.2019 104.883 71.0908 104.994 70.9646C105.106 70.8384 105.201 70.7072 105.282 70.5759L105.57 69.1978C105.54 68.9707 105.469 68.7738 105.358 68.6072C105.247 68.4406 105.111 68.3094 104.954 68.2185C104.798 68.1276 104.621 68.0822 104.429 68.0822C104.187 68.0822 103.955 68.1478 103.743 68.274C103.525 68.4002 103.334 68.5668 103.167 68.7687C103 68.9707 102.864 69.2029 102.768 69.4553C102.672 69.7077 102.622 69.9702 102.622 70.2327C102.622 70.48 102.672 70.7072 102.768 70.9192C102.864 71.1312 103 71.2978 103.172 71.4139C103.334 71.5351 103.536 71.5956 103.768 71.5956Z" fill="#1B3764"/>
<path d="M113.006 72.7821C112.516 72.7821 112.092 72.6761 111.733 72.4691C111.375 72.2621 111.102 71.9694 110.911 71.6009C110.719 71.2323 110.628 70.8134 110.628 70.3439C110.628 69.8694 110.719 69.4201 110.906 68.991C111.092 68.5619 111.35 68.1934 111.683 67.8653C112.016 67.5372 112.405 67.2848 112.849 67.098C113.293 66.9112 113.773 66.8153 114.293 66.8153C114.717 66.8153 115.08 66.8759 115.393 67.0021C115.706 67.1283 115.944 67.31 116.115 67.5473C116.287 67.7845 116.373 68.0773 116.373 68.4206C116.373 69.0314 116.095 69.4908 115.535 69.8088C114.974 70.1268 114.136 70.2833 113.021 70.2833C112.799 70.2833 112.556 70.2783 112.299 70.2682C112.041 70.2581 111.759 70.2379 111.456 70.2076L111.643 69.2737C111.91 69.2939 112.152 69.3141 112.375 69.3242C112.597 69.3343 112.814 69.3393 113.031 69.3393C113.51 69.3393 113.894 69.309 114.167 69.2434C114.444 69.1778 114.646 69.0819 114.772 68.9607C114.899 68.8396 114.959 68.6932 114.959 68.5266C114.959 68.3802 114.924 68.2641 114.848 68.1732C114.772 68.0824 114.671 68.0117 114.545 67.9663C114.414 67.9208 114.263 67.8956 114.086 67.8956C113.798 67.8956 113.531 67.9612 113.293 68.0975C113.051 68.2338 112.844 68.4155 112.667 68.6477C112.491 68.88 112.354 69.1475 112.258 69.4453C112.163 69.7432 112.112 70.0612 112.112 70.3944C112.112 70.6417 112.152 70.8638 112.238 71.0658C112.324 71.2677 112.45 71.4191 112.622 71.5302C112.794 71.6412 113.011 71.6917 113.278 71.6917C113.576 71.6917 113.854 71.621 114.116 71.4797C114.379 71.3383 114.591 71.1415 114.742 70.8891L115.918 71.2576C115.726 71.5554 115.474 71.8179 115.161 72.0451C114.848 72.2722 114.51 72.454 114.141 72.5852C113.768 72.7165 113.389 72.7821 113.006 72.7821Z" fill="#1B3764"/>
<path d="M120.689 72.7825C120.32 72.7825 120.033 72.6967 119.826 72.52C119.624 72.3434 119.523 72.096 119.523 71.7679C119.523 71.7023 119.528 71.6316 119.538 71.5609C119.548 71.4902 119.558 71.4196 119.568 71.3439L121.012 64.5643H122.491L121.168 70.8239C121.163 70.8592 121.153 70.8996 121.153 70.935C121.148 70.9703 121.148 71.0107 121.148 71.046C121.148 71.3489 121.3 71.5003 121.602 71.5003C121.683 71.5003 121.779 71.4852 121.885 71.4549C121.991 71.4246 122.092 71.3893 122.188 71.3439L122.143 72.4746C121.936 72.5705 121.693 72.6462 121.421 72.6967C121.148 72.7472 120.906 72.7825 120.689 72.7825Z" fill="#1B3764"/>
<path d="M127.62 72.7827C127.145 72.7827 126.701 72.707 126.282 72.5505C125.863 72.394 125.53 72.1719 125.278 71.8842L126.02 70.9503C126.302 71.1926 126.59 71.3794 126.888 71.5106C127.186 71.6419 127.484 71.7025 127.786 71.7025C127.993 71.7025 128.17 71.6722 128.322 71.6116C128.468 71.551 128.584 71.4703 128.665 71.3642C128.746 71.2582 128.786 71.1421 128.786 71.0058C128.786 70.8241 128.705 70.6878 128.544 70.602C128.382 70.5162 128.125 70.4203 127.776 70.3193C127.393 70.1931 127.075 70.077 126.827 69.9609C126.58 69.8498 126.398 69.7135 126.277 69.557C126.161 69.4006 126.1 69.1986 126.1 68.9614C126.1 68.5525 126.217 68.189 126.449 67.8659C126.681 67.5429 126.999 67.2905 127.393 67.1037C127.786 66.9169 128.231 66.826 128.72 66.826C129.144 66.826 129.518 66.8917 129.851 67.0229C130.184 67.1542 130.482 67.3561 130.74 67.6287L129.952 68.5272C129.715 68.3051 129.488 68.1436 129.271 68.0426C129.054 67.9417 128.811 67.8912 128.554 67.8912C128.362 67.8912 128.19 67.9164 128.039 67.972C127.887 68.0275 127.766 68.1083 127.68 68.2143C127.59 68.3203 127.549 68.4515 127.549 68.603C127.549 68.7695 127.62 68.8907 127.756 68.9664C127.892 69.0421 128.13 69.133 128.473 69.234C128.887 69.3501 129.23 69.4712 129.493 69.6025C129.76 69.7287 129.957 69.8801 130.093 70.0568C130.225 70.2335 130.295 70.4556 130.295 70.7231C130.295 71.127 130.184 71.4803 129.962 71.7883C129.74 72.0962 129.427 72.3385 129.028 72.5152C128.619 72.6919 128.155 72.7827 127.62 72.7827Z" fill="#1B3764"/>
<path d="M133.597 72.6713L133.94 71.071H135.162L134.818 72.6713H133.597Z" fill="#1B3764"/>
</svg>
