<svg width="14" height="15" viewBox="0 0 14 15" fill="none" xmlns="http://www.w3.org/2000/svg">
<path d="M3.125 14.5H0.21875V5.15625H3.125V14.5ZM2.875 3.375C2.54167 3.70833 2.14583 3.875 1.6875 3.875C1.22917 3.875 0.833333 3.70833 0.5 3.375C0.166667 3.04167 0 2.64583 0 2.1875C0 1.72917 0.166667 1.33333 0.5 1C0.833333 0.666667 1.22917 0.5 1.6875 0.5C2.14583 0.5 2.54167 0.666667 2.875 1C3.20833 1.33333 3.375 1.72917 3.375 2.1875C3.375 2.64583 3.20833 3.04167 2.875 3.375ZM14 14.5H11.0938V9.9375C11.0938 9.58333 11.0833 9.30208 11.0625 9.09375C11.0417 8.86458 10.9896 8.61458 10.9062 8.34375C10.8229 8.05208 10.6667 7.83333 10.4375 7.6875C10.2292 7.54167 9.94792 7.46875 9.59375 7.46875C8.90625 7.46875 8.4375 7.6875 8.1875 8.125C7.95833 8.5625 7.84375 9.14583 7.84375 9.875V14.5H4.9375V5.15625H7.75V6.4375H7.78125C7.98958 6.02083 8.33333 5.66667 8.8125 5.375C9.29167 5.0625 9.86458 4.90625 10.5312 4.90625C11.2396 4.90625 11.8229 5.02083 12.2812 5.25C12.7604 5.45833 13.1146 5.78125 13.3438 6.21875C13.5938 6.63542 13.7604 7.09375 13.8438 7.59375C13.9479 8.09375 14 8.6875 14 9.375V14.5Z" fill="#1B3764"/>
</svg>
